<?xml version="1.0" standalone="no"?>
<!DOCTYPE svg PUBLIC "-//W3C//DTD SVG 20010904//EN"
 "http://www.w3.org/TR/2001/REC-SVG-20010904/DTD/svg10.dtd">
<svg version="1.0" xmlns="http://www.w3.org/2000/svg"
 width="1024.000000pt" height="1024.000000pt" viewBox="0 0 1024.000000 1024.000000"
 preserveAspectRatio="xMidYMid meet">

<g transform="translate(0.000000,1024.000000) scale(0.100000,-0.100000)"
fill="#000000" stroke="none">
<path d="M4743 8613 c-41 -5 -41 -4 -2 -188 17 -80 29 -152 27 -160 -2 -8 -64
51 -148 141 l-145 155 -44 -5 c-25 -4 -46 -8 -48 -10 -4 -4 82 -483 93 -520 5
-15 13 -17 46 -13 22 3 41 7 43 9 2 1 -12 80 -31 173 -19 94 -33 177 -31 186
1 10 60 -44 162 -150 154 -159 161 -166 195 -162 19 1 38 5 42 7 3 2 0 32 -8
66 -8 35 -34 155 -57 267 -24 113 -48 205 -53 206 -5 1 -24 0 -41 -2z"/>
<path d="M5392 8448 c-125 -240 -184 -360 -178 -365 3 -3 24 -8 48 -10 l43 -5
24 56 c12 31 27 58 31 61 5 3 61 0 124 -7 l115 -12 16 -67 17 -67 46 -5 c26
-3 48 -4 49 -3 4 3 -140 551 -146 557 -3 4 -29 10 -57 14 l-52 7 -80 -154z
m161 -73 c15 -66 27 -124 27 -128 0 -5 -28 -6 -62 -2 -89 9 -118 15 -118 26 0
22 111 242 119 233 4 -5 20 -63 34 -129z"/>
<path d="M6264 8381 c-20 -12 -37 -34 -44 -57 -20 -61 0 -105 90 -199 84 -88
101 -121 80 -161 -46 -85 -248 -4 -224 90 5 20 1 27 -25 40 -16 9 -35 16 -40
16 -15 0 -24 -64 -16 -107 15 -80 137 -153 253 -153 69 0 112 23 135 73 37 78
17 134 -90 248 -73 79 -87 111 -61 137 30 30 121 3 180 -55 l37 -36 15 38 c9
21 16 44 16 52 0 8 -34 30 -77 51 -97 45 -180 54 -229 23z"/>
<path d="M3663 8302 c-40 -15 -43 -19 -43 -52 0 -24 42 -502 50 -567 0 -2 20
7 45 19 l46 22 -6 56 c-4 30 -9 63 -11 72 -4 13 20 29 103 72 l108 55 50 -49
c28 -28 57 -50 65 -49 8 0 32 8 53 17 l38 17 -221 200 c-121 110 -224 201
-228 202 -4 1 -26 -6 -49 -15z m133 -169 c52 -49 94 -91 94 -95 0 -4 -36 -26
-80 -48 -44 -22 -80 -38 -80 -35 0 10 -31 221 -35 243 -3 12 -3 22 1 22 3 0
48 -39 100 -87z"/>
<path d="M6915 7960 c-49 -71 -102 -151 -117 -177 -65 -113 -16 -224 125 -289
66 -30 124 -30 169 0 25 16 258 345 258 363 0 14 -72 55 -80 46 -4 -4 -52 -73
-105 -153 -127 -187 -129 -190 -177 -190 -101 0 -157 85 -113 170 8 16 60 91
115 166 55 75 100 139 100 142 0 8 -67 52 -77 51 -5 0 -48 -58 -98 -129z"/>
<path d="M2980 7888 c-73 -43 -140 -111 -169 -173 -32 -69 -27 -181 12 -247
100 -172 292 -196 460 -57 41 34 97 115 97 140 0 23 -66 93 -80 84 -5 -3 -10
-22 -10 -41 0 -46 -20 -83 -66 -124 -102 -89 -231 -78 -307 28 -41 57 -50 148
-19 208 33 63 94 111 165 128 15 3 27 11 27 17 0 20 -31 69 -43 69 -6 0 -37
-15 -67 -32z"/>
<path d="M5368 7674 c-33 -17 -50 -46 -42 -69 7 -16 54 -45 76 -45 13 -1 72
-72 83 -101 4 -10 -14 -33 -56 -69 -35 -30 -64 -50 -66 -45 -8 26 -90 141
-134 189 -27 30 -49 61 -49 69 0 31 -34 59 -74 60 -43 1 -66 -20 -66 -61 0
-56 34 -77 77 -47 21 15 23 14 44 -27 12 -24 35 -59 50 -78 16 -19 29 -40 29
-47 0 -7 18 -36 40 -65 22 -29 40 -60 40 -69 0 -9 -17 -36 -38 -60 -172 -201
-224 -320 -224 -509 0 -52 7 -130 16 -174 l15 -78 -24 -32 c-13 -17 -36 -70
-51 -116 -15 -47 -31 -89 -34 -93 -4 -4 -26 22 -50 60 -38 61 -41 72 -36 111
8 59 62 211 79 226 8 6 17 37 20 69 5 55 5 57 -17 51 -14 -3 -28 2 -40 15 -26
29 -17 87 28 184 27 58 40 77 55 77 28 0 40 27 30 63 -8 27 -4 37 33 84 22 30
45 56 50 59 25 16 95 154 78 154 -6 0 -27 -16 -49 -35 -21 -19 -43 -35 -48
-35 -10 0 -83 94 -113 147 -11 17 -28 37 -40 43 -19 10 -22 7 -41 -37 -32 -77
-52 -114 -60 -111 -19 7 -139 121 -139 132 0 7 16 34 36 59 32 41 39 45 66 40
37 -7 58 15 58 62 0 41 -16 55 -62 55 -35 0 -40 -4 -83 -70 -25 -38 -48 -77
-51 -85 -4 -8 -12 -15 -20 -15 -25 0 -114 64 -120 87 -15 55 -96 26 -102 -37
-4 -40 9 -50 66 -50 34 0 49 -7 80 -34 l37 -34 -53 -104 c-77 -148 -74 -145
-114 -121 -27 16 -33 25 -33 55 0 33 -18 68 -35 68 -4 0 -13 -13 -20 -30 -15
-37 -27 -37 -90 -5 -53 27 -60 43 -39 89 7 16 21 26 38 28 21 2 28 10 35 41
10 40 3 62 -26 81 -21 13 -78 -11 -78 -33 0 -9 -9 -41 -20 -71 -12 -30 -23
-61 -25 -67 -5 -15 -105 19 -144 49 -21 16 -27 17 -45 5 -24 -16 -33 -62 -16
-82 6 -8 39 -14 85 -17 41 -2 79 -8 85 -14 9 -9 6 -30 -9 -80 -27 -91 -68
-189 -78 -189 -19 0 -119 38 -131 50 -16 15 -1 115 23 151 30 46 13 127 -24
117 -41 -11 -53 -37 -57 -134 -2 -52 -8 -97 -12 -101 -4 -4 -22 -3 -38 4 -52
19 -83 -6 -70 -57 5 -19 13 -25 35 -25 47 0 61 -10 61 -41 0 -39 -14 -43 -96
-26 l-69 14 1 61 c1 56 4 65 37 101 29 33 35 45 28 63 -11 30 -33 42 -62 35
-48 -13 -52 -21 -54 -108 -1 -46 -7 -97 -13 -113 -12 -27 -15 -28 -55 -21 -23
4 -61 9 -84 10 -26 2 -49 11 -62 24 -26 26 -36 26 -61 1 -21 -21 -23 -28 -21
-75 4 -58 91 -102 99 -50 7 42 7 42 84 30 l73 -11 -3 -64 c-4 -73 -17 -104
-38 -96 -15 6 -204 -10 -237 -20 -33 -10 -8 -21 40 -18 29 2 83 -5 133 -19 77
-20 85 -24 87 -47 1 -14 7 -61 12 -105 6 -44 7 -83 3 -87 -5 -5 -26 -5 -48 0
-35 7 -39 11 -42 40 -4 40 -15 40 -53 3 -28 -28 -32 -29 -141 -32 l-113 -4 -3
79 c-2 64 0 81 13 88 8 5 15 20 15 34 0 27 -40 74 -64 74 -39 0 -74 -98 -45
-127 15 -15 24 -138 11 -146 -5 -4 -42 -8 -82 -9 -81 -2 -93 -12 -65 -54 17
-26 19 -27 91 -21 83 7 72 16 93 -80 10 -49 4 -57 -49 -67 -103 -20 -221 -52
-270 -74 -30 -13 -77 -28 -105 -33 -75 -13 -104 -57 -69 -107 10 -15 25 -22
48 -22 37 0 56 15 56 46 0 14 12 30 33 42 43 27 173 60 277 71 47 5 93 12 102
16 14 5 23 -7 48 -61 16 -36 30 -71 30 -75 0 -5 -21 -9 -47 -9 -27 0 -85 -5
-129 -11 l-81 -12 -35 38 c-36 39 -64 41 -53 4 3 -10 7 -28 10 -38 5 -15 -1
-21 -27 -26 -43 -9 -108 -51 -108 -70 0 -12 18 -15 94 -15 l94 0 32 -56 c30
-54 33 -84 9 -84 -6 0 -46 -16 -89 -35 -64 -29 -83 -33 -104 -25 -24 9 -26 7
-26 -15 0 -18 -12 -34 -42 -55 -22 -16 -47 -30 -55 -30 -22 0 -42 61 -36 107
3 23 3 53 -1 67 -6 23 -12 26 -46 26 -34 0 -42 -4 -50 -26 -16 -40 -12 -78 9
-91 10 -6 28 -40 40 -75 l21 -63 -27 -20 c-63 -46 -90 -76 -102 -115 -10 -35
-10 -45 4 -66 18 -28 44 -31 75 -6 19 16 20 20 9 45 -12 26 -10 30 23 64 l36
35 35 -38 c32 -35 37 -37 61 -26 30 14 33 39 10 84 -15 30 -15 32 2 46 21 15
101 52 114 52 5 0 27 -25 49 -57 48 -65 48 -64 -47 -122 -37 -22 -98 -72 -137
-111 -57 -57 -67 -72 -55 -80 24 -15 34 -12 93 30 30 22 62 40 69 40 8 0 32
-19 54 -42 72 -77 72 -72 8 -109 -47 -26 -60 -30 -76 -20 -15 9 -26 7 -58 -9
-22 -11 -40 -25 -40 -31 0 -14 56 -69 70 -69 7 0 27 16 45 36 22 24 55 44 101
60 l68 25 25 -25 c25 -25 25 -25 5 -47 -10 -12 -50 -46 -89 -74 -38 -29 -81
-64 -94 -79 -14 -14 -29 -26 -35 -26 -6 0 -33 18 -60 41 l-49 40 -21 -21 -21
-21 48 -42 c26 -23 47 -48 47 -56 0 -7 -17 -34 -38 -60 -21 -25 -47 -61 -58
-78 -10 -18 -21 -33 -24 -33 -19 0 -69 69 -72 100 -3 29 -8 36 -35 44 -44 12
-63 -5 -63 -55 0 -41 11 -51 119 -111 l30 -17 -26 -58 c-14 -32 -34 -65 -43
-73 -32 -27 -34 -57 -6 -85 26 -26 55 -32 85 -15 26 13 32 35 19 70 -8 25 -7
39 7 71 10 21 23 39 29 39 7 0 33 -22 60 -49 27 -27 67 -57 90 -67 67 -29 156
-86 156 -100 0 -7 -10 -25 -23 -40 l-23 -27 -92 37 c-104 42 -150 44 -163 9
-7 -18 -1 -26 39 -52 26 -16 73 -39 105 -51 32 -12 61 -29 64 -37 3 -9 -4 -47
-16 -84 l-22 -69 -31 17 c-17 10 -49 37 -72 60 -22 24 -49 43 -58 43 -28 0
-48 -29 -48 -69 0 -58 19 -76 82 -77 29 -1 66 -6 81 -12 31 -13 31 -19 5 -138
-16 -75 -6 -102 39 -110 31 -6 39 -3 55 16 22 27 23 78 3 108 -11 15 -14 32
-9 57 5 29 11 35 31 35 19 0 204 -55 221 -66 2 -1 -5 -33 -15 -71 l-18 -68
-58 0 c-64 0 -77 -10 -77 -61 0 -31 1 -32 59 -38 l60 -7 -6 -72 c-3 -40 -9
-97 -13 -127 -4 -32 -4 -62 1 -72 21 -39 111 -33 117 8 2 11 -9 46 -23 79 -25
55 -25 60 -9 72 10 8 19 31 22 62 5 57 11 61 113 61 57 0 69 -3 89 -25 31 -33
53 -32 66 3 9 23 19 30 50 35 71 12 94 9 94 -13 0 -38 -23 -175 -30 -184 -5
-4 -82 -13 -172 -20 -156 -11 -163 -12 -166 -33 -6 -44 61 -55 218 -34 135 18
124 25 116 -75 -3 -48 -9 -90 -12 -95 -3 -5 -31 -9 -64 -9 -56 0 -59 1 -79 35
-22 38 -59 47 -81 20 -13 -16 -8 -94 10 -140 12 -31 60 -34 87 -6 12 12 39 20
79 24 l61 6 7 -87 c12 -153 14 -162 26 -177 18 -22 53 -18 78 8 33 35 27 97
-9 97 -16 0 -19 8 -19 48 0 26 -3 63 -6 82 l-6 35 69 23 c38 12 76 22 85 22
19 0 28 -29 28 -90 0 -25 10 -89 22 -142 20 -91 20 -99 5 -116 -33 -36 -17
-77 33 -84 18 -2 26 -11 31 -34 9 -45 17 -54 50 -54 38 0 58 37 41 75 -20 44
-15 53 42 69 30 9 58 16 63 16 5 0 23 -20 41 -45 50 -72 86 -56 57 25 -15 43
-15 45 7 61 29 22 93 43 106 35 6 -3 23 -43 38 -89 15 -45 35 -99 45 -119 l19
-37 -31 -17 c-20 -10 -49 -14 -83 -12 l-51 3 -3 -41 c-2 -28 3 -48 15 -63 17
-21 22 -22 59 -12 23 6 55 24 72 41 43 40 62 38 94 -13 37 -57 94 -117 112
-117 18 0 56 47 56 69 0 9 -7 27 -16 40 -13 18 -23 22 -45 17 -24 -5 -31 -1
-44 24 -8 16 -15 35 -15 43 0 13 91 77 108 77 4 0 25 -32 47 -71 39 -68 107
-141 152 -161 12 -6 24 -21 27 -33 8 -30 31 -38 73 -24 79 26 67 113 -14 102
-44 -6 -50 0 -137 117 -89 120 -87 115 -39 161 23 21 46 39 51 39 6 0 17 -11
26 -25 50 -77 48 -67 16 -115 -17 -25 -30 -51 -30 -57 0 -24 58 -14 84 13 23
25 25 26 47 10 28 -19 53 -21 67 -3 9 10 6 23 -9 52 -12 21 -18 47 -15 59 6
24 104 156 115 156 4 0 12 -10 18 -23 6 -13 34 -48 62 -79 l51 -56 -35 -58
c-19 -32 -35 -61 -35 -65 0 -4 -11 -10 -24 -13 -35 -9 -56 -33 -56 -65 0 -32
13 -45 52 -55 22 -5 31 -1 44 19 10 16 14 36 11 54 -5 24 1 35 43 74 28 26 54
47 60 47 6 0 39 -22 74 -49 36 -27 70 -51 76 -53 9 -3 3 -18 -16 -46 -21 -30
-36 -41 -55 -42 -54 0 -69 -63 -23 -99 52 -41 80 -21 109 77 9 28 20 54 26 58
6 3 43 -9 83 -27 61 -27 74 -38 82 -63 8 -28 14 -31 52 -34 55 -4 75 12 69 52
-2 17 -7 38 -10 46 -4 8 0 24 8 34 16 21 27 19 160 -26 17 -5 37 -12 45 -14
23 -7 70 34 70 60 0 36 -33 60 -74 52 -35 -7 -122 10 -131 24 -3 5 11 49 30
99 19 49 35 101 35 115 0 36 15 40 67 21 44 -17 45 -18 38 -54 -4 -20 -14 -54
-22 -76 -28 -76 -28 -85 -1 -85 21 0 29 11 58 76 18 42 39 78 46 81 15 6 81
-14 89 -27 3 -5 -1 -23 -10 -39 -8 -17 -15 -37 -15 -46 0 -28 43 -13 68 25 21
31 28 35 60 32 20 -2 52 -11 70 -20 24 -13 37 -14 50 -6 23 15 27 60 7 91 -16
24 -21 25 -71 19 -58 -7 -61 -3 -42 39 9 21 9 29 -4 42 -22 22 -46 10 -64 -32
-8 -19 -19 -35 -25 -35 -16 0 -89 40 -89 49 0 5 9 28 19 52 11 24 23 61 26 82
4 21 13 40 19 43 6 2 54 -12 106 -32 176 -66 187 -69 204 -54 9 7 16 16 16 20
0 5 -44 25 -97 46 -157 60 -213 91 -213 117 0 37 14 51 38 38 31 -16 182 -51
223 -51 23 0 39 6 42 14 7 18 -8 30 -58 46 -50 16 -150 65 -187 93 -26 20 -28
25 -28 95 0 65 2 73 17 68 51 -20 257 -70 308 -75 l60 -6 3 -158 c3 -182 -6
-234 -43 -243 -22 -5 -25 -12 -25 -50 0 -37 4 -46 22 -53 24 -9 74 4 84 21 9
14 11 91 3 103 -3 6 -10 60 -13 120 l-7 110 30 29 c26 25 31 38 31 74 0 44 0
44 31 38 17 -3 51 -6 74 -6 l42 0 7 -67 c6 -62 5 -69 -15 -84 -18 -13 -21 -22
-15 -52 6 -31 12 -38 46 -48 75 -23 95 8 57 86 -14 29 -29 70 -32 91 -4 22 -9
47 -12 57 -4 15 4 17 71 17 80 0 94 -10 60 -45 -26 -26 -11 -44 29 -35 50 11
56 17 63 61 l7 39 47 0 c27 0 56 3 65 6 25 10 37 50 23 79 -20 43 -90 48 -96
7 -4 -26 -28 -40 -43 -25 -5 5 -14 34 -19 64 -18 102 -25 92 65 97 83 4 115
18 115 52 0 35 -26 43 -114 36 l-84 -7 -20 60 c-11 33 -18 62 -14 65 3 3 27 6
53 6 26 0 87 12 135 26 49 15 96 28 105 31 11 3 23 -13 42 -57 20 -47 31 -61
44 -58 24 4 29 58 9 97 -9 16 -16 36 -16 43 0 19 110 81 142 80 50 -1 77 68
40 101 -36 33 -112 13 -112 -29 0 -14 -68 -54 -92 -54 -15 0 -92 147 -80 153
4 3 40 14 79 26 78 24 113 54 113 98 0 14 -3 23 -7 21 -81 -41 -183 -78 -213
-78 -19 0 -60 52 -60 75 0 6 19 21 43 34 23 13 65 39 93 57 28 19 58 34 68 34
9 0 16 6 16 13 0 16 82 77 103 77 8 0 17 -13 21 -30 6 -33 43 -57 70 -47 20 8
21 75 1 101 -11 14 -12 24 -3 40 18 35 50 66 69 66 10 0 31 12 48 26 50 42 40
114 -17 114 -42 0 -62 -18 -62 -55 0 -27 -7 -39 -39 -64 -21 -17 -45 -31 -53
-31 -7 0 -37 31 -65 69 l-51 69 44 42 c76 73 40 101 -43 34 -23 -19 -47 -34
-53 -34 -15 0 -116 78 -155 120 -16 17 -47 41 -67 51 -21 11 -38 23 -38 27 1
10 99 72 115 72 7 0 35 -20 63 -45 27 -25 54 -45 59 -45 12 0 53 43 53 56 0 6
-29 28 -65 49 -71 41 -71 45 -14 86 l28 20 78 -49 c96 -59 112 -65 129 -51 28
23 14 48 -56 104 -38 31 -70 62 -70 69 0 7 14 25 31 42 17 16 40 46 50 67 11
20 22 37 25 37 3 0 23 -12 45 -27 32 -24 39 -34 39 -64 0 -42 29 -74 58 -65
10 4 28 22 38 41 17 32 17 38 4 62 -9 16 -29 31 -47 36 -17 5 -44 23 -59 38
-27 29 -28 30 -15 77 7 26 17 63 20 82 4 19 15 46 24 60 14 22 14 29 2 58 -11
26 -20 32 -44 32 -53 0 -93 -79 -56 -110 8 -7 15 -20 15 -29 -1 -24 -37 -101
-49 -101 -5 0 -41 21 -79 48 -38 26 -108 65 -156 86 -64 29 -86 43 -86 58 0
29 59 138 75 138 7 0 45 -11 83 -25 38 -14 72 -25 75 -25 11 0 39 62 33 75 -4
12 -64 35 -130 50 -25 5 -28 9 -23 35 4 16 13 45 21 64 l15 35 45 -15 c32 -11
46 -21 46 -34 0 -21 36 -50 62 -50 46 0 64 74 29 119 -15 19 -24 23 -48 18
-18 -3 -45 1 -71 13 -41 19 -42 20 -37 57 3 21 7 76 8 123 2 82 1 85 -22 88
-64 9 -103 -37 -66 -78 24 -26 13 -150 -13 -150 -39 0 -217 58 -220 72 -1 7 4
38 11 68 l14 55 54 3 c60 3 79 18 79 63 0 27 0 27 -60 22 l-61 -6 7 66 c4 43
3 71 -4 80 -8 9 -8 25 -1 53 20 78 -33 129 -90 86 -31 -24 -34 -81 -6 -112 19
-20 17 -52 -5 -132 l-11 -38 -84 0 c-87 0 -107 8 -120 50 -10 32 -44 25 -52
-10 -6 -33 -14 -36 -100 -43 -32 -2 -53 0 -53 6 0 6 8 50 17 99 16 86 18 88
47 92 65 10 203 29 238 33 29 4 38 10 43 30 3 14 2 30 -3 35 -8 8 -258 -6
-289 -17 -8 -3 -13 21 -15 78 -2 45 -2 88 0 95 4 13 20 17 92 27 42 5 46 3 62
-26 15 -25 23 -30 50 -27 32 3 33 5 32 46 0 23 -7 54 -14 67 -16 30 -55 43
-81 27 -10 -6 -47 -14 -83 -18 l-65 -7 -6 29 c-4 16 -11 45 -16 64 -5 19 -9
49 -9 66 0 40 -18 62 -57 70 -34 7 -44 -4 -57 -59 -5 -22 -1 -33 20 -54 28
-28 47 -86 38 -115 -5 -18 -101 -59 -144 -61 -23 -2 -25 2 -32 63 -8 75 -27
150 -38 150 -4 0 -16 -12 -25 -27 -14 -21 -16 -38 -11 -85 6 -57 5 -59 -22
-69 -15 -6 -44 -13 -64 -16 -36 -5 -37 -5 -48 38 -9 36 -42 154 -61 218 -3 9
12 19 40 29 l44 15 24 -32 c30 -38 65 -40 99 -6 19 19 23 31 18 48 -10 35 -23
45 -46 39 -18 -4 -20 -2 -15 20 4 15 1 33 -9 46 -26 37 -84 23 -84 -19 0 -23
-7 -27 -67 -35 l-52 -6 -30 61 c-17 33 -31 72 -31 85 0 28 -38 60 -66 54 -9
-2 -26 -15 -36 -29 -27 -36 -15 -77 27 -95 29 -12 40 -28 58 -85 7 -22 -2 -33
-50 -58 -62 -31 -70 -28 -99 38 -14 33 -33 62 -41 65 -23 9 -56 -13 -48 -32
21 -50 45 -123 45 -136 0 -16 -59 -66 -77 -66 -6 0 -29 46 -53 103 -23 56 -51
117 -62 136 l-19 34 33 34 c31 31 37 33 64 23 26 -10 31 -9 52 17 35 44 39 73
12 95 -29 23 -66 23 -86 -1 -53 -63 -84 -91 -102 -91 -28 0 -112 93 -112 124
0 26 -23 56 -43 56 -7 -1 -24 -7 -39 -16z m-614 -353 l56 -60 -24 -63 c-38
-99 -70 -168 -79 -168 -5 0 -26 15 -49 33 -100 81 -91 66 -77 122 11 47 60
156 81 183 18 21 34 13 92 -47z m854 -75 l66 -128 -60 -54 c-32 -29 -63 -52
-69 -50 -5 1 -39 60 -74 131 l-65 129 59 53 c32 29 63 52 68 50 5 -1 38 -60
75 -131z m-585 27 l38 -42 -21 -40 c-11 -23 -25 -41 -30 -41 -16 0 -90 100
-90 121 0 11 7 36 16 57 l16 37 16 -25 c10 -14 34 -44 55 -67z m-756 -33 c29
-23 53 -42 53 -44 0 -1 -9 -38 -20 -81 -11 -43 -20 -100 -20 -126 0 -26 -3
-50 -7 -52 -11 -7 -143 73 -143 87 1 53 58 256 72 256 6 0 35 -18 65 -40z
m1796 -97 c27 -89 46 -168 47 -190 0 -11 -119 -73 -140 -73 -4 0 -10 30 -13
68 -3 37 -14 94 -23 127 -27 95 -25 106 21 132 70 40 78 35 108 -64z m-688 44
c24 -37 95 -206 95 -227 0 -18 -100 -141 -121 -148 -9 -4 -11 5 -29 113 -6 39
-18 100 -27 136 l-16 67 33 41 c18 22 37 41 41 41 5 0 15 -10 24 -23z m-472
-61 c20 -30 37 -61 37 -70 0 -9 -11 -39 -25 -68 -13 -29 -30 -75 -38 -103
l-13 -50 -43 59 -43 58 21 77 c24 83 51 151 60 151 3 0 23 -25 44 -54z m-477
11 l27 -24 -37 -109 c-21 -60 -40 -115 -42 -122 -3 -10 -10 -9 -33 3 -40 20
-44 30 -28 62 8 15 22 62 32 103 27 118 35 126 81 87z m1422 -80 c11 -34 27
-98 37 -141 l17 -79 -23 -18 c-13 -10 -27 -15 -30 -11 -3 4 -13 35 -23 70 -9
35 -30 93 -46 129 -17 36 -30 70 -30 75 0 12 62 48 72 42 4 -3 16 -33 26 -67z
m-1240 -66 c47 -41 53 -50 49 -76 -10 -55 -56 -208 -67 -219 -7 -7 -30 9 -75
54 l-65 65 29 102 c29 107 45 138 65 126 6 -4 35 -27 64 -52z m1130 -56 c12
-49 24 -113 28 -141 l6 -51 -53 -46 c-29 -26 -56 -43 -60 -39 -3 4 -14 39 -23
77 -10 39 -26 90 -37 114 -33 75 -26 98 53 160 37 31 54 38 59 29 3 -7 16 -53
27 -103z m-479 -10 c11 -49 30 -102 41 -118 17 -22 19 -32 10 -40 -14 -15 -25
-1 -80 100 -45 82 -45 81 -25 130 21 49 31 36 54 -72z m-1286 66 c61 -28 64
-30 59 -60 -5 -37 -14 -38 -86 -6 -53 23 -56 27 -56 60 0 19 4 35 9 35 5 0 38
-13 74 -29z m2357 -11 c0 -13 -12 -25 -37 -35 -63 -27 -83 -29 -83 -11 0 11
20 26 53 41 64 29 67 30 67 5z m232 -110 c-5 -86 -12 -97 -70 -105 -92 -13
-86 -16 -93 50 -4 32 -5 64 -3 70 6 14 122 54 149 52 18 -2 20 -8 17 -67z
m-2799 30 l57 -21 0 -59 0 -59 -55 6 c-37 4 -64 1 -80 -7 -20 -11 -27 -11 -41
0 -16 14 -15 33 3 138 6 39 16 39 116 2z m458 -29 c46 -33 92 -65 102 -73 17
-12 17 -19 6 -88 -6 -40 -8 -94 -5 -118 3 -24 2 -42 -2 -40 -5 2 -61 28 -125
58 l-117 54 0 48 c0 58 5 59 92 16 l64 -33 -13 25 c-7 14 -13 30 -13 36 0 11
-43 51 -90 84 -18 13 -21 21 -15 53 4 20 13 37 20 37 7 0 50 -27 96 -59z
m1913 22 c7 -17 -10 -36 -66 -70 -23 -14 -68 -79 -68 -98 0 -9 38 3 94 32 27
13 52 21 56 16 4 -4 5 -28 2 -51 -4 -38 -9 -46 -36 -57 -18 -8 -74 -44 -125
-80 -51 -37 -94 -65 -96 -63 -2 1 -11 54 -20 116 -19 129 -16 137 46 145 26 3
52 16 69 32 29 28 120 94 131 94 4 1 10 -7 13 -16z m214 -87 l3 -57 -57 -25
c-45 -20 -59 -22 -65 -12 -13 20 -11 106 3 115 24 15 93 42 103 39 6 -1 11
-28 13 -60z m-2338 -46 c0 -54 -11 -65 -51 -51 -67 23 -79 37 -79 90 0 26 3
51 7 54 3 4 32 -8 65 -25 54 -30 58 -35 58 -68z m828 -18 l78 -117 -13 -45
c-7 -25 -21 -65 -32 -90 -11 -25 -22 -54 -26 -65 -6 -17 -17 -9 -86 65 l-80
85 7 60 c6 56 39 199 50 217 12 19 28 2 102 -110z m682 66 c1 -18 12 -80 25
-138 l24 -105 -87 -82 c-48 -46 -89 -83 -92 -83 -7 0 -60 210 -60 237 0 14 17
36 44 59 25 21 62 61 83 90 44 62 63 68 63 22z m-275 -81 c16 -31 16 -35 1
-65 -15 -30 -15 -32 3 -42 11 -5 27 -10 35 -10 9 0 18 -10 20 -22 12 -57 24
-168 24 -218 0 -48 -4 -59 -31 -88 l-32 -33 -38 83 c-48 103 -77 199 -77 258
0 45 50 170 68 170 5 0 17 -15 27 -33z m-685 -207 c0 -41 3 -112 7 -158 5 -71
9 -86 28 -98 38 -25 53 -9 59 64 4 37 10 94 14 127 l8 60 19 -34 c11 -18 39
-60 63 -93 l44 -60 -16 -67 c-9 -36 -23 -91 -31 -121 -8 -30 -15 -81 -15 -114
l0 -59 -40 46 c-23 25 -82 79 -133 120 -51 41 -102 85 -114 99 -29 30 -53 100
-53 149 0 37 2 39 25 33 30 -7 31 1 9 57 -13 32 -16 60 -11 130 3 49 9 94 13
100 4 7 29 -11 65 -47 l59 -58 0 -76z m1981 81 c-1 -52 -4 -98 -6 -102 -3 -3
-28 -9 -57 -12 -29 -3 -61 -9 -71 -12 -17 -7 -18 -2 -12 81 10 145 9 143 104
140 l44 -1 -2 -94z m-2715 56 c7 -7 46 -209 41 -213 -5 -5 -193 39 -201 47 -8
7 -36 169 -31 179 5 8 183 -4 191 -13z m1969 -19 c3 -24 11 -73 17 -109 10
-64 10 -68 -17 -114 l-28 -47 31 7 32 7 0 -70 0 -69 -61 -53 c-41 -35 -64 -49
-71 -42 -6 6 -30 -10 -72 -52 -34 -33 -77 -69 -94 -79 l-32 -18 0 27 c0 30
-44 198 -66 250 -17 40 -19 36 92 152 l51 54 7 -69 c15 -155 14 -151 49 -144
27 6 33 13 40 46 5 22 6 89 3 150 l-6 110 52 52 c29 29 55 53 59 53 4 0 10
-19 14 -42z m555 8 c0 -13 -7 -60 -15 -103 -15 -81 -31 -103 -71 -103 -18 0
-22 7 -28 53 -9 82 -7 144 7 155 15 12 42 19 80 21 22 1 27 -3 27 -23z m-2369
-33 c4 -4 12 -48 18 -98 12 -99 7 -115 -33 -97 -27 12 -50 73 -62 165 l-7 50
38 -6 c21 -3 42 -10 46 -14z m2170 -104 c-1 -46 -8 -93 -15 -104 -8 -11 -40
-31 -72 -44 -33 -14 -81 -37 -107 -53 -26 -15 -52 -28 -57 -28 -6 0 -10 39
-10 89 l0 88 63 39 c94 58 181 104 192 101 5 -2 8 -39 6 -88z m-1941 11 c134
-59 140 -66 140 -162 0 -75 -1 -78 -24 -78 -36 0 -99 25 -175 70 -76 46 -81
55 -81 162 0 72 -4 72 140 8z m2523 -82 c15 -12 15 -18 3 -65 -8 -28 -17 -56
-20 -62 -4 -6 -39 -11 -82 -11 -67 0 -75 2 -70 18 3 9 10 37 16 62 17 63 25
70 84 70 29 0 60 -6 69 -12z m-217 -70 c-9 -29 -20 -59 -24 -66 -8 -11 -81
-32 -175 -49 l-29 -6 30 43 c17 23 36 57 42 76 10 29 18 36 63 48 110 31 115
29 93 -46z m503 39 c0 -18 -5 -48 -12 -67 l-12 -35 -110 -6 c-60 -4 -111 -6
-113 -4 -3 2 36 124 43 135 2 3 49 6 104 7 l101 2 -1 -32z m-3595 -18 c3 -17
6 -47 6 -65 l0 -34 -77 0 c-43 0 -88 -3 -100 -6 -26 -7 -37 13 -48 89 l-7 47
110 0 110 0 6 -31z m153 23 c8 -5 53 -105 53 -119 0 -2 -24 -3 -54 -3 -60 0
-62 1 -72 80 l-7 50 34 0 c19 0 39 -4 46 -8z m256 -18 c44 -15 47 -18 73 -85
14 -39 24 -72 21 -75 -2 -3 -38 4 -78 15 -41 10 -87 22 -102 25 -21 5 -33 18
-47 49 -28 61 -26 75 13 80 63 8 74 7 120 -9z m1338 -117 c21 -53 39 -104 39
-113 0 -8 -11 -30 -24 -47 -33 -43 -76 -136 -76 -164 0 -42 -15 -24 -44 55
-43 113 -41 184 9 291 21 45 42 80 47 79 5 -2 27 -47 49 -101z m1099 83 c0 -6
-8 -25 -17 -43 l-18 -32 -3 28 c-3 28 12 57 29 57 5 0 9 -5 9 -10z m-2253 -51
c19 -39 29 -114 14 -104 -12 7 -40 64 -56 113 -6 20 -4 23 11 20 11 -2 24 -15
31 -29z m2117 -31 c-13 -81 -19 -93 -69 -125 l-50 -33 38 0 c25 0 40 -5 44
-16 6 -16 -42 -173 -61 -199 -7 -9 -41 -19 -86 -24 -42 -6 -84 -13 -94 -17
-17 -7 -18 -4 -12 27 5 19 12 52 17 74 5 22 13 85 19 140 8 85 13 102 32 117
42 32 179 98 204 98 23 0 24 -2 18 -42z m-1943 6 c64 -19 140 -56 157 -77 7
-8 17 -48 21 -88 5 -41 25 -125 46 -187 20 -63 34 -116 31 -120 -3 -3 -41 7
-84 21 -42 15 -84 27 -94 27 -32 0 -103 110 -123 193 -6 22 -2 25 29 31 l36 7
-26 52 c-15 28 -37 68 -49 87 -47 76 -41 83 56 54z m720 -107 c66 -102 77
-127 95 -211 16 -79 16 -192 -1 -189 -5 0 -20 27 -33 58 -13 32 -48 113 -78
181 -30 69 -54 137 -54 156 0 39 10 78 19 78 3 0 27 -33 52 -73z m460 26 c11
-36 11 -37 -26 -71 -39 -36 -44 -35 -59 15 -5 16 1 31 25 57 17 20 35 36 39
36 5 0 14 -17 21 -37z m-1883 -43 c32 -68 89 -140 111 -140 17 0 13 20 -19 95
-41 98 -41 99 28 90 31 -4 63 -12 70 -18 8 -6 27 -38 43 -72 15 -33 46 -82 69
-109 22 -26 37 -52 34 -57 -3 -5 -47 -9 -97 -9 -222 0 -454 -34 -591 -86 -36
-14 -40 -14 -60 5 -11 11 -29 34 -39 50 -18 31 -18 31 6 40 23 9 218 28 247
24 31 -5 213 22 228 33 14 10 13 14 -11 38 -24 24 -33 26 -106 26 l-81 0 -31
61 c-16 34 -28 67 -25 75 3 8 27 14 68 17 35 2 77 4 94 5 28 2 32 -2 62 -68z
m3177 61 c3 -6 -27 -75 -66 -154 l-71 -144 -65 -7 c-35 -4 -68 -4 -73 -1 -4 3
14 42 40 87 27 45 59 107 71 137 27 69 35 79 62 84 42 8 96 7 102 -2z m305
-20 c0 -27 -38 -108 -54 -114 -7 -3 -50 -9 -95 -13 -59 -5 -89 -12 -107 -27
-34 -26 -22 -33 88 -48 87 -12 88 -12 82 -38 -12 -50 -19 -52 -167 -44 l-136
8 18 41 c10 22 34 61 52 85 19 25 47 73 63 107 l30 62 113 0 c104 0 113 -2
113 -19z m-520 -4 c0 -7 -30 -73 -67 -147 l-68 -135 -85 -7 c-47 -4 -90 -6
-97 -3 -8 3 -5 22 13 67 14 35 28 85 31 112 6 46 8 49 52 68 110 48 221 71
221 45z m800 -4 c29 -9 54 -23 57 -30 7 -17 -11 -61 -40 -96 l-22 -27 -104 15
c-58 9 -108 18 -113 21 -12 8 -10 16 17 78 l25 56 64 0 c35 0 87 -8 116 -17z
m-3324 -48 c76 -20 144 -41 151 -47 13 -11 47 -109 59 -173 7 -37 6 -38 -22
-33 -16 3 -64 12 -107 19 -72 12 -80 15 -94 43 -9 17 -28 47 -43 66 -25 34
-90 144 -90 155 0 7 -5 8 146 -30z m1885 -78 c-7 -18 -18 -27 -33 -27 -13 0
-33 -3 -45 -6 -19 -5 -23 -2 -23 19 0 19 14 36 53 67 l52 42 3 -34 c2 -19 -2
-46 -7 -61z m-1234 -20 c122 -97 130 -106 171 -185 23 -46 42 -97 42 -114 l0
-32 -31 30 c-17 16 -62 70 -100 121 -117 155 -118 133 -3 -74 41 -73 74 -138
74 -144 0 -20 -63 27 -115 86 -65 75 -92 128 -139 277 -35 114 -41 138 -31
138 2 0 62 -46 132 -103z m243 42 c0 -6 15 -46 34 -88 25 -56 38 -107 51 -195
9 -65 24 -145 34 -176 19 -59 104 -224 121 -235 22 -14 33 60 39 265 5 193 8
219 27 255 21 40 103 155 111 155 2 0 8 -11 13 -25 8 -20 4 -34 -18 -72 -72
-124 -95 -230 -90 -419 5 -216 27 -219 106 -16 75 191 89 241 112 392 11 77
29 140 40 140 5 0 16 -26 25 -57 13 -45 14 -65 6 -99 -15 -57 -14 -60 7 -36
23 27 204 173 209 168 12 -11 -23 -58 -71 -96 -96 -73 -147 -138 -213 -271
-61 -121 -103 -250 -103 -316 0 -39 7 -41 46 -11 127 95 222 225 359 490 24
47 48 89 53 92 5 3 16 0 25 -7 15 -11 15 -17 2 -57 -7 -25 -25 -72 -39 -105
-14 -33 -26 -65 -26 -72 0 -7 37 12 82 42 80 54 112 67 197 79 l43 7 -6 -28
c-12 -48 -39 -75 -101 -97 -72 -27 -308 -148 -350 -180 -128 -98 -227 -246
-164 -246 31 0 182 61 339 137 128 62 139 70 226 159 70 72 97 94 118 94 40 0
32 -23 -35 -95 -72 -76 -57 -89 23 -19 97 84 233 228 253 269 l20 40 73 3 c47
2 72 -1 72 -8 0 -6 14 -16 30 -21 17 -6 30 -15 30 -19 0 -17 -86 -81 -133 -98
-49 -19 -90 -63 -73 -79 4 -4 49 -8 99 -9 160 -1 177 -3 177 -18 0 -18 -101
-109 -157 -143 -35 -20 -50 -24 -83 -18 -30 5 -40 11 -39 23 3 31 -1 33 -30
17 -27 -13 -38 -13 -101 0 -104 22 -167 20 -180 -5 -6 -11 -20 -20 -31 -20
-72 0 -436 -161 -533 -236 -48 -36 -49 -38 -25 -46 34 -13 284 -31 414 -30 68
0 131 6 165 16 30 9 93 25 139 36 l84 21 126 -62 126 -61 -25 -20 c-32 -26
-195 -108 -215 -108 -8 0 -40 13 -72 29 -87 44 -250 98 -334 110 -85 13 -364
0 -414 -19 l-30 -11 35 -29 c65 -53 245 -139 400 -191 146 -48 159 -51 235
-47 44 3 107 14 140 26 l59 20 47 -24 c26 -13 50 -28 54 -34 12 -20 -68 -41
-189 -51 l-122 -11 -135 45 c-74 25 -163 59 -199 75 -132 60 -360 121 -360 95
0 -28 169 -205 275 -288 120 -94 192 -137 270 -160 68 -20 71 -22 98 -75 16
-32 23 -56 17 -58 -6 -2 -41 5 -78 17 -91 27 -206 109 -372 266 -143 134 -277
241 -288 231 -12 -13 27 -133 101 -306 106 -249 101 -225 68 -322 -15 -45 -30
-77 -34 -72 -3 6 -22 87 -41 181 -19 94 -47 201 -61 239 -28 74 -94 192 -119
213 -25 21 -31 -26 -31 -239 0 -143 5 -224 19 -305 19 -115 18 -165 -9 -318
-19 -106 -34 -157 -45 -157 -13 0 -64 102 -89 178 -19 56 -20 63 -5 97 8 21
22 86 30 146 7 60 18 128 24 151 18 74 24 316 10 397 -12 71 -13 73 -31 55
-31 -32 -108 -174 -128 -238 -36 -115 -53 -211 -54 -301 -1 -75 2 -97 21 -132
12 -23 22 -51 22 -61 0 -20 -49 -72 -68 -72 -18 0 -27 67 -26 207 l0 132 -68
-64 c-68 -64 -116 -101 -122 -94 -2 2 -7 14 -10 26 -8 24 6 42 140 183 44 47
74 92 107 160 51 107 100 257 95 290 -3 21 -4 21 -48 -9 -94 -62 -159 -134
-241 -266 -48 -78 -87 -153 -96 -188 -17 -58 -57 -107 -89 -107 -18 0 -17 4 2
87 11 48 29 89 65 141 27 41 49 78 49 84 0 6 54 63 119 127 104 101 181 201
181 235 0 16 -66 -2 -180 -50 -166 -69 -331 -186 -418 -294 -29 -36 -61 -63
-94 -79 -89 -42 -85 1 12 118 68 81 101 132 94 142 -3 5 -19 -2 -36 -16 -16
-14 -40 -28 -53 -31 -32 -8 -137 15 -132 29 5 17 102 46 188 57 102 12 183 31
299 70 117 40 182 71 239 118 41 33 42 36 22 43 -39 15 -275 20 -471 11 -177
-8 -201 -11 -262 -36 l-67 -27 -73 25 c-79 27 -188 82 -188 96 0 14 103 48
187 63 76 13 81 12 203 -19 171 -45 282 -58 415 -50 123 7 236 23 248 35 17
17 -100 82 -263 146 -52 20 -120 49 -150 65 -97 50 -223 80 -335 80 l-60 0
-80 80 c-44 44 -83 80 -87 80 -11 0 17 -66 47 -112 14 -21 25 -42 25 -48 0
-15 -115 -2 -158 17 -32 15 -172 148 -172 163 0 8 127 22 235 24 33 1 60 6 60
11 -1 19 -47 85 -60 85 -16 0 -125 89 -125 103 0 11 186 4 228 -9 13 -4 31
-23 42 -43 20 -40 93 -136 167 -221 47 -55 182 -164 191 -155 3 2 -20 33 -50
67 -30 35 -64 77 -76 95 -23 33 -29 63 -12 63 6 0 58 -42 116 -92 221 -194
240 -207 407 -262 102 -34 177 -46 177 -28 0 18 -73 92 -162 163 -95 77 -343
233 -403 254 -19 6 -43 19 -54 29 -19 18 -47 73 -40 81 9 8 158 -24 200 -43
63 -28 96 -56 243 -200 149 -145 286 -243 286 -204 0 32 -51 180 -101 290 -33
73 -67 163 -74 200 -15 68 -20 207 -9 236 7 18 24 22 24 5z m2299 -119 c35 -5
68 -13 73 -18 7 -7 0 -32 -17 -71 -30 -66 -39 -71 -96 -47 -19 8 -63 20 -99
26 -36 7 -69 16 -73 20 -5 4 6 28 25 53 31 42 36 46 78 46 25 0 74 -4 109 -9z
m-1842 -64 c-6 -64 -32 -144 -43 -133 -7 6 14 140 27 175 15 40 22 23 16 -42z
m285 -104 c-22 -37 -50 -79 -61 -92 -17 -21 -20 -22 -21 -7 0 43 108 207 118
178 2 -6 -14 -42 -36 -79z m-2068 28 c31 -27 70 -56 87 -66 25 -12 29 -18 18
-25 -19 -12 -66 -11 -90 2 -11 5 -36 35 -55 64 -57 91 -42 100 40 25z m-56
-37 c50 -76 47 -87 -28 -97 -27 -4 -73 -18 -102 -31 l-53 -24 -47 46 c-54 53
-59 74 -23 97 37 24 167 76 190 75 13 0 34 -22 63 -66z m681 51 c32 -7 51 -35
67 -101 5 -19 2 -23 -19 -23 -17 0 -38 16 -71 54 -25 30 -46 59 -46 65 0 12
23 14 69 5z m2121 -29 c0 -20 -120 -114 -146 -115 -11 0 -27 6 -36 13 -15 11
-14 17 7 65 l24 52 75 0 c60 0 76 -3 76 -15z m777 -33 c68 -34 73 -39 68 -62
-7 -30 -54 -99 -77 -113 -12 -8 -45 -1 -132 28 -64 21 -116 44 -116 50 0 7 9
20 20 30 11 10 34 40 52 67 31 49 32 50 71 44 22 -4 74 -23 114 -44z m-292
-54 c-13 -41 -29 -51 -74 -43 -23 4 -41 11 -41 16 0 12 78 48 103 49 14 0 17
-5 12 -22z m-3616 -47 c23 -27 41 -56 41 -64 0 -14 -118 -78 -144 -77 -21 1
-120 100 -110 110 15 15 144 80 159 80 7 0 32 -22 54 -49z m4163 -2 c21 -11
51 -19 68 -19 19 0 53 -16 96 -45 36 -25 69 -45 75 -45 5 0 9 -8 9 -17 0 -24
-96 -153 -114 -153 -8 0 -27 10 -43 23 -45 37 -92 62 -173 92 -105 38 -108 43
-75 96 63 102 78 108 157 68z m-2830 -82 c127 -70 176 -141 56 -81 -72 36
-158 101 -158 120 0 18 -7 21 102 -39z m1439 14 c-45 -57 -106 -109 -156 -133
-56 -27 -71 -15 -26 21 19 14 68 54 109 89 87 71 120 82 73 23z m-2287 -43
c30 -35 73 -74 96 -88 22 -14 40 -28 40 -32 0 -4 -17 -10 -37 -13 -21 -3 -72
-14 -114 -24 l-77 -18 -98 92 -98 91 45 18 c50 20 109 33 156 35 27 1 40 -8
87 -61z m3220 -9 c50 -16 95 -34 101 -40 14 -14 -91 -116 -150 -145 l-51 -24
-72 21 c-40 12 -72 26 -72 31 0 4 -10 8 -23 8 -13 0 -27 3 -31 7 -12 12 156
171 183 172 12 1 64 -13 115 -30z m-3504 -107 l90 -88 -92 -22 c-111 -27 -108
-27 -108 -3 0 10 -25 41 -55 68 -30 28 -55 58 -55 67 0 9 1 16 3 16 1 0 29 11
62 25 33 13 61 25 63 25 1 0 43 -40 92 -88z m3795 14 c87 -49 220 -128 228
-135 4 -4 -8 -22 -27 -40 l-34 -33 -81 32 c-45 18 -84 37 -88 43 -3 5 8 20 26
34 69 54 18 58 -110 8 -50 -19 -99 -35 -109 -35 -25 0 -50 -10 -50 -20 0 -12
59 -30 98 -30 75 0 253 -62 252 -87 -1 -10 -70 -60 -142 -104 -32 -18 -58 -37
-58 -41 0 -16 19 -15 59 3 l43 19 76 -78 c43 -42 94 -90 115 -106 20 -16 37
-34 37 -41 0 -14 -90 -65 -117 -65 -19 0 -148 89 -263 183 -88 71 -95 74 -212
98 -110 22 -141 34 -135 52 6 19 72 25 186 17 93 -7 215 0 228 14 6 6 -86 78
-152 118 -30 18 -54 35 -54 38 -1 3 17 18 38 34 21 15 67 57 102 92 69 70 71
70 144 30z m-4084 -54 c50 -32 131 -115 121 -121 -6 -4 -36 -15 -66 -25 -66
-22 -76 -19 -153 50 l-48 43 25 20 c24 19 79 50 90 51 3 0 17 -8 31 -18z
m3104 7 c10 -15 7 -17 -96 -55 -83 -31 -229 -57 -229 -41 0 11 102 59 175 83
75 25 140 30 150 13z m-1845 -35 c105 -15 148 -33 186 -75 l19 -21 -55 7
c-127 17 -240 54 -269 89 -17 20 -14 20 119 0z m2073 -3 c12 -12 -70 -59 -143
-81 -34 -10 -67 -23 -74 -29 -7 -6 -43 -22 -80 -36 -51 -19 -85 -25 -146 -25
-44 0 -80 4 -80 9 0 5 26 15 58 21 31 6 84 20 116 31 33 10 77 19 97 19 32 0
47 8 96 55 56 54 59 55 103 50 24 -3 48 -9 53 -14z m-2291 -21 c34 -16 69 -30
77 -30 8 0 47 -16 86 -35 40 -20 109 -43 153 -53 45 -9 82 -20 82 -24 0 -8
-124 -12 -199 -8 -85 5 -361 136 -361 171 0 21 99 9 162 -21z m-188 -26 c33
-26 67 -49 74 -51 25 -10 11 -22 -45 -38 -32 -9 -79 -30 -105 -46 -44 -28 -48
-29 -80 -16 -46 19 -160 126 -156 146 2 12 28 20 98 32 143 25 145 25 214 -27z
m2625 15 c104 -31 284 -98 295 -109 11 -11 -63 -48 -171 -86 -77 -26 -83 -27
-100 -12 -10 10 -67 40 -127 69 l-109 52 37 18 c20 10 53 31 74 48 41 34 50
36 101 20z m-3128 -84 c29 -22 84 -47 159 -72 63 -21 116 -43 118 -50 2 -7
-19 -16 -55 -23 -73 -14 -243 -70 -264 -87 -21 -17 -21 -17 -65 18 -65 51 -64
56 15 92 69 32 70 32 52 55 -16 21 -20 22 -63 13 -26 -6 -70 -20 -99 -32 -41
-16 -58 -18 -76 -10 -43 20 -26 37 68 71 51 18 104 39 118 46 37 19 42 18 92
-21z m425 -218 c44 -23 93 -49 109 -57 17 -9 30 -21 30 -28 0 -6 -31 -39 -69
-73 -61 -54 -73 -60 -99 -55 -39 8 -237 102 -237 113 0 4 32 30 70 56 39 27
76 57 83 68 6 10 17 19 23 19 7 0 47 -19 90 -43z m-611 -18 c17 -9 47 -22 68
-29 21 -6 37 -16 35 -22 -2 -5 -29 -20 -60 -32 -81 -33 -213 -135 -196 -151 3
-4 30 3 59 13 196 70 254 93 270 108 16 14 23 15 49 4 16 -7 30 -16 30 -20 0
-5 -29 -31 -64 -58 -35 -28 -83 -73 -106 -101 -24 -28 -51 -53 -61 -56 -20 -7
-105 33 -159 74 -19 15 -61 40 -93 55 -31 16 -60 33 -63 38 -7 11 143 153 195
184 36 23 45 22 96 -7z m2742 8 c47 -13 109 -44 101 -52 -1 -2 -37 5 -78 16
-41 10 -92 21 -113 24 -21 3 -35 10 -32 16 9 13 62 11 122 -4z m714 -37 c43
-27 83 -50 88 -50 51 0 -81 -67 -207 -106 l-75 -23 -68 42 c-38 23 -69 44 -69
47 0 3 19 16 43 29 63 36 201 110 206 111 2 0 39 -22 82 -50z m-2221 22 c0 -5
-26 -15 -57 -21 -32 -7 -79 -22 -104 -32 -36 -16 -51 -18 -74 -9 -42 16 -20
31 77 51 92 19 158 23 158 11z m1587 -83 c35 -11 83 -23 106 -27 56 -10 57
-27 1 -41 -81 -21 -164 -6 -234 42 -33 22 -60 44 -60 50 0 14 108 0 187 -24z
m-1836 -36 c37 -3 111 0 164 6 101 13 128 10 79 -10 -66 -25 -192 -40 -251
-30 -63 12 -72 9 -143 -56 l-39 -35 -56 12 c-30 6 -55 15 -55 20 0 4 23 28 52
51 41 35 62 45 102 50 28 3 58 4 66 2 8 -3 45 -7 81 -10z m2814 -49 c159 -100
166 -105 159 -115 -10 -16 -86 -49 -114 -49 -17 0 -49 21 -96 63 -39 35 -85
74 -102 86 -39 27 -40 36 -4 55 43 24 61 19 157 -40z m-3257 -54 c31 -13 23
-25 -95 -143 l-99 -98 -80 25 c-43 14 -94 35 -112 46 l-34 21 33 37 c17 20 64
72 104 114 l71 77 95 -35 c52 -19 104 -39 117 -44z m3107 -41 c52 -51 95 -97
95 -103 0 -10 -162 -66 -190 -66 -30 0 -210 154 -210 180 0 5 24 16 53 24 28
9 70 25 92 35 22 11 46 20 53 20 7 1 55 -40 107 -90z m-3959 27 c20 -17 28
-33 28 -57 1 -34 1 -34 51 -35 39 -1 64 -10 113 -39 34 -20 62 -41 62 -46 0
-12 -81 -139 -89 -139 -4 0 -57 22 -117 49 -136 61 -217 110 -210 128 14 35
108 163 121 163 8 0 26 -11 41 -24z m2964 -27 c61 -31 87 -52 136 -111 71 -86
99 -126 91 -134 -9 -10 -66 34 -157 120 -47 45 -109 99 -138 121 -91 69 -62
71 68 4z m1598 -1 c16 -24 39 -52 51 -62 11 -11 21 -25 21 -32 0 -20 -97 -77
-114 -67 -17 9 -116 123 -116 133 0 8 103 69 117 70 7 0 25 -19 41 -42z
m-3569 -12 c50 -14 59 -27 36 -46 -19 -15 -20 -40 -2 -40 8 0 33 14 55 30 40
28 47 30 140 30 54 0 101 -3 105 -6 15 -16 -265 -367 -300 -376 -36 -9 -143 4
-143 18 0 7 24 39 54 71 65 70 74 93 46 118 -16 15 -22 16 -35 5 -11 -9 -36
-11 -89 -7 -121 11 -127 18 -69 87 34 39 141 130 153 130 3 0 25 -6 49 -14z
m2669 -56 c94 -63 120 -86 108 -98 -5 -4 -75 -6 -157 -6 -168 1 -160 8 -98
-82 16 -23 25 -44 22 -48 -4 -3 -50 -6 -103 -6 l-96 0 -50 72 c-27 40 -69 96
-93 126 -24 29 -41 55 -38 58 2 3 25 0 50 -6 53 -12 264 12 306 35 41 22 55
18 149 -45z m-1958 41 c0 -20 -176 -141 -205 -141 -13 0 -3 29 19 49 22 21
163 100 179 101 4 0 7 -4 7 -9z m1338 -169 c5 -16 -30 -15 -73 2 -44 19 -160
130 -150 145 7 12 215 -125 223 -147z m1369 80 c39 -26 79 -52 89 -58 17 -10
13 -14 -31 -42 -28 -18 -81 -42 -119 -54 -68 -23 -69 -23 -83 -3 -32 45 -83
139 -80 148 3 10 111 54 137 56 8 0 47 -21 87 -47z m-239 -106 c40 -41 72 -78
72 -84 0 -9 -229 -105 -271 -114 -22 -4 -202 184 -186 194 25 16 51 6 99 -37
28 -25 54 -45 59 -45 13 0 11 26 -6 67 -8 20 -14 37 -13 38 6 5 154 53 164 54
6 1 43 -32 82 -73z m-2507 47 c-28 -52 -110 -114 -200 -153 -90 -38 -121 -47
-121 -35 0 3 18 39 41 80 l40 74 53 0 c58 0 117 13 156 36 34 19 43 19 31 -2z
m1057 -37 c111 -120 193 -266 151 -266 -7 0 -40 25 -75 55 -55 48 -67 66 -92
133 -54 141 -52 152 16 78z m-2264 0 c44 -13 94 -27 109 -30 43 -10 43 -30 1
-97 l-39 -60 -70 4 c-52 2 -85 11 -129 33 -33 16 -61 34 -63 40 -5 14 83 134
98 134 6 0 48 -11 93 -24z m1420 -8 c-17 -56 -106 -199 -117 -188 -10 10 53
154 79 181 33 35 48 37 38 7z m779 -114 c26 -38 68 -89 92 -114 45 -45 59 -90
34 -106 -15 -9 -99 75 -136 139 -37 61 -69 161 -50 155 7 -3 34 -36 60 -74z
m562 31 c34 -11 65 -31 97 -62 27 -26 48 -51 48 -55 0 -9 -105 -9 -138 1 -15
4 -36 29 -59 69 -40 71 -37 73 52 47z m-2525 -10 c0 -17 -98 -97 -113 -92 -23
7 -16 27 21 66 40 42 92 57 92 26z m541 -6 c33 -23 37 -49 11 -72 -22 -20
-103 -33 -126 -20 -15 8 -12 16 24 61 23 29 46 52 52 52 5 0 23 -9 39 -21z
m1192 -69 c62 -137 97 -280 69 -280 -43 0 -142 225 -142 320 0 73 29 57 73
-40z m-299 41 c9 -13 -12 -203 -25 -237 l-11 -29 -13 35 c-18 48 -18 106 1
171 9 30 18 57 21 62 6 10 21 9 27 -2z m1564 -47 c33 -29 50 -50 44 -56 -15
-15 -227 -10 -267 6 -40 17 -91 64 -80 74 3 4 50 10 103 13 53 3 108 6 122 7
17 1 42 -13 78 -44z m-549 -52 c16 -6 41 -27 56 -47 29 -37 66 -134 58 -148
-3 -4 -20 -5 -39 -1 -45 8 -45 -6 0 -117 19 -46 31 -85 27 -87 -12 -4 -123 47
-174 81 -38 26 -51 43 -68 87 -18 49 -19 55 -5 66 21 15 20 27 -8 98 -13 34
-27 82 -31 109 l-7 47 81 -39 c44 -21 94 -43 110 -49z m-1604 26 c-5 -24 -9
-69 -11 -100 -2 -60 -11 -96 -47 -190 -22 -58 -22 -58 -87 -79 -36 -12 -82
-30 -102 -40 -21 -11 -39 -19 -42 -19 -9 0 23 98 48 144 35 66 34 79 -4 71
-22 -5 -30 -3 -30 7 0 20 26 98 49 148 20 44 22 46 108 72 125 38 127 38 118
-14z m2778 -10 c10 -17 14 -34 10 -39 -4 -4 -68 -18 -141 -32 -108 -21 -138
-24 -153 -14 -17 10 -22 9 -30 -5 -8 -14 -23 -18 -64 -18 -43 0 -53 -3 -49
-14 7 -17 56 -36 94 -36 24 0 28 -7 48 -68 37 -115 39 -112 -76 -112 l-98 0
-22 48 c-12 26 -42 75 -67 110 -25 35 -45 69 -45 76 0 10 30 17 98 25 132 17
294 54 367 84 83 35 106 34 128 -5z m-3975 -8 c50 -16 98 -30 107 -30 19 0 20
-24 1 -39 -16 -13 -251 20 -270 39 -8 8 -2 17 19 35 17 13 35 24 41 25 6 0 52
-13 102 -30z m902 -32 c0 -34 -60 -194 -77 -205 -10 -6 -49 -19 -88 -27 -38
-9 -89 -21 -112 -28 -23 -6 -46 -9 -50 -5 -10 10 73 177 111 221 29 35 35 38
100 42 38 2 72 6 74 9 11 10 42 4 42 -7z m-503 -22 c2 -2 -101 -219 -126 -266
-7 -12 -28 -15 -94 -15 -105 1 -115 7 -98 67 23 79 34 88 103 88 48 0 69 5 95
23 18 12 33 27 33 34 0 11 -80 33 -120 33 -23 0 -24 4 -9 32 11 20 17 20 112
14 56 -4 103 -8 104 -10z m243 7 c0 -5 -26 -52 -59 -105 -32 -54 -64 -111 -71
-128 -13 -32 -37 -42 -132 -55 l-47 -6 24 55 c57 130 115 235 132 239 30 8
153 7 153 0z m1766 -126 c21 -25 24 -38 24 -107 l0 -78 -32 2 -33 1 -5 -109
-5 -109 -32 36 c-17 20 -50 63 -71 95 -48 70 -55 117 -25 182 12 25 29 84 38
132 l18 87 49 -52 c27 -28 60 -65 74 -80z m614 116 c38 -3 72 -12 83 -21 22
-19 150 -223 144 -229 -9 -8 -251 66 -276 85 -19 14 -32 41 -48 98 -12 43 -23
81 -23 83 0 2 12 0 28 -3 15 -4 56 -10 92 -13z m-487 -46 c25 -21 42 -47 51
-79 8 -27 10 -48 5 -48 -5 0 -27 12 -49 26 -30 20 -41 35 -46 63 -3 20 -8 44
-11 54 -7 25 7 21 50 -16z m791 8 c13 -14 38 -53 56 -87 18 -35 46 -79 62 -98
42 -52 38 -60 -29 -53 -76 8 -86 13 -132 81 -21 31 -49 66 -61 77 -23 20 -50
66 -50 84 0 5 24 12 53 14 28 2 58 4 65 5 7 1 23 -9 36 -23z m-1757 -127 c6
-79 14 -151 18 -160 5 -13 -12 -36 -69 -93 -42 -42 -76 -82 -76 -89 0 -8 -6
-19 -14 -25 -19 -16 -23 -1 -32 113 -7 100 -13 109 -50 82 -17 -13 -19 -30
-22 -161 l-4 -147 -54 -55 c-31 -30 -58 -53 -60 -50 -8 8 -33 158 -34 198 0
26 7 42 30 64 38 37 38 48 -1 40 l-31 -7 3 88 c3 56 8 89 16 91 7 3 39 22 73
44 33 21 72 39 86 39 13 0 27 7 31 16 6 15 162 154 174 154 3 0 10 -64 16
-142z m2482 77 c33 -52 56 -103 49 -110 -4 -5 -102 -23 -242 -46 -33 -6 -62
-6 -67 -2 -10 11 -59 134 -59 149 0 7 15 15 33 18 105 16 224 34 240 35 11 0
28 -16 46 -44z m-2709 11 c0 -29 -31 -69 -83 -107 -48 -35 -61 -36 -53 -6 4
12 12 45 20 72 12 45 16 51 47 56 63 12 69 10 69 -15z m-1489 -5 c35 -11 91
-24 123 -30 33 -6 61 -13 63 -15 2 -2 -12 -33 -33 -70 l-36 -66 -52 6 c-85 10
-189 33 -200 44 -10 10 15 73 50 128 17 26 8 26 85 3z m2772 -250 c11 -88 6
-106 -24 -91 -35 19 -45 -1 -31 -61 12 -52 17 -239 6 -239 -3 0 -31 23 -62 51
l-56 51 1 111 c1 100 15 243 29 303 5 21 8 21 67 -16 l62 -37 8 -72z m-543 67
c18 -29 37 -56 43 -59 6 -5 4 -40 -7 -100 -9 -52 -19 -124 -22 -161 -4 -50 -9
-68 -20 -68 -25 0 -26 -25 -5 -81 l21 -54 -26 -89 c-42 -148 -87 -222 -307
-510 l-22 -29 -26 39 c-41 64 -42 71 -5 112 18 20 52 66 75 101 l43 63 -26 62
c-49 116 -75 223 -48 190 5 -5 32 -37 62 -71 29 -35 59 -63 66 -63 17 0 46 57
68 129 19 64 20 139 5 228 -10 57 -9 69 9 111 11 26 25 74 32 107 7 33 19 72
26 87 8 15 14 45 14 68 0 22 4 40 9 40 5 0 24 -24 41 -52z m-260 -178 c32 -62
38 -181 16 -284 -10 -42 -21 -78 -25 -80 -4 -3 -27 15 -52 40 -39 40 -42 47
-31 65 17 26 8 53 -22 67 -25 11 -38 60 -52 199 l-6 63 54 49 53 49 21 -61
c12 -34 31 -82 44 -107z m-1000 101 c-11 -40 -45 -71 -60 -54 -4 4 8 33 28 63
38 59 50 56 32 -9z m-100 41 c0 -15 -66 -106 -90 -123 -24 -18 -134 -41 -144
-31 -3 2 4 22 14 43 11 21 20 45 20 53 0 21 9 24 102 46 100 22 98 22 98 12z
m2303 -48 c29 -58 29 -71 2 -60 -16 6 -32 41 -42 89 -9 45 11 31 40 -29z m167
28 c102 -18 109 -23 124 -98 l7 -31 -78 5 c-89 5 -117 18 -137 66 -22 53 -28
76 -19 75 4 0 51 -8 103 -17z m-383 -51 l111 -53 16 -70 c17 -77 20 -112 9
-106 -5 2 -60 29 -123 59 -63 31 -120 62 -127 70 -6 8 -12 43 -13 79 -3 78 -2
83 8 78 4 -1 57 -27 119 -57z m-1687 -46 l0 -94 -45 -31 c-25 -17 -80 -47
-122 -66 -59 -27 -78 -32 -84 -22 -21 32 -1 168 28 200 9 10 28 18 42 18 14 0
41 10 60 23 62 40 106 67 114 67 4 0 7 -43 7 -95z m-881 69 c4 -4 -15 -124
-21 -129 -5 -5 -51 -7 -131 -6 -102 1 -102 3 -56 127 7 20 13 21 106 16 54 -2
100 -6 102 -8z m208 -17 c-3 -18 -13 -51 -24 -73 -17 -37 -22 -40 -76 -48 -80
-13 -87 -1 -56 101 9 29 14 32 72 41 95 15 90 16 84 -21z m3070 -32 c34 -60
31 -75 -16 -75 -79 0 -102 10 -122 54 -29 65 -28 67 48 64 67 -3 68 -3 90 -43z
m238 13 c7 -18 15 -46 17 -63 l3 -30 -80 -3 -80 -3 -28 56 c-15 30 -27 57 -27
60 0 7 44 12 113 14 68 1 68 1 82 -31z m-1468 -161 c53 -71 72 -104 68 -120
-2 -12 -12 -63 -20 -112 -23 -131 -24 -132 -94 -55 -33 36 -65 76 -72 90 -6
14 -19 39 -27 57 -14 28 -14 41 -3 95 7 35 20 86 29 115 21 63 19 63 119 -70z
m-672 51 c4 -29 13 -84 21 -121 l14 -68 -63 -87 c-34 -48 -69 -88 -78 -90 -20
-4 -84 207 -74 246 6 24 149 172 166 172 4 0 10 -24 14 -52z m1452 30 c4 -7
17 -40 29 -73 27 -79 48 -80 52 -2 2 31 5 57 7 57 2 0 25 -11 52 -24 26 -13
70 -27 96 -31 36 -6 51 -13 58 -29 12 -29 39 -149 34 -154 -10 -10 -188 24
-274 53 -109 36 -108 35 -110 153 -1 59 0 62 23 62 14 0 28 -6 33 -12z m-2274
-38 c-1 -14 -5 -60 -9 -102 l-7 -77 -45 -16 c-25 -8 -52 -15 -59 -15 -37 0 17
207 60 228 37 18 62 11 60 -18z m-167 -32 c-3 -13 -9 -58 -13 -100 -3 -42 -9
-82 -14 -89 -4 -8 -33 -13 -76 -13 l-68 -1 2 99 c2 54 5 101 8 105 7 6 84 18
134 20 30 1 33 -1 27 -21z m2946 -34 c19 -6 58 -115 58 -161 0 -26 0 -26 -67
-20 -37 4 -73 13 -81 20 -15 16 -54 156 -46 169 6 9 96 3 136 -8z m-2447 -31
c3 -21 10 -63 16 -93 24 -128 25 -125 -15 -156 -20 -16 -78 -55 -128 -87 -85
-53 -94 -57 -105 -41 -25 35 -16 71 29 106 22 18 64 54 92 80 44 41 48 48 28
48 -12 0 -54 -16 -93 -36 -39 -19 -73 -33 -76 -30 -3 2 -7 22 -10 44 l-5 40
83 54 c46 30 102 66 124 81 22 14 43 26 47 26 4 1 10 -16 13 -36z m2689 -45
c25 -104 29 -98 -74 -98 l-90 0 0 54 c0 29 -3 67 -6 84 l-6 31 73 3 c41 2 77
1 80 -2 3 -3 14 -35 23 -72z m-988 21 c54 -28 105 -57 113 -64 10 -10 12 -27
7 -69 -4 -31 -11 -56 -14 -56 -4 0 -42 20 -84 44 l-77 44 19 -37 c28 -54 82
-127 113 -151 28 -22 35 -58 16 -77 -24 -24 -144 59 -175 119 -14 27 -17 28
-28 13 -12 -16 -13 -16 -29 0 -20 20 -20 20 -5 168 10 95 15 117 28 117 9 0
61 -23 116 -51z m-1464 -131 c9 -29 25 -93 35 -141 l18 -89 -37 -34 c-40 -36
-86 -53 -97 -36 -3 5 -19 60 -35 122 l-29 111 59 60 c32 32 61 59 64 59 4 0
14 -24 22 -52z m1156 -25 c41 -45 60 -73 56 -83 -4 -8 -15 -58 -27 -110 -11
-52 -23 -99 -28 -104 -11 -12 -65 24 -118 78 -42 43 -44 47 -28 64 27 29 46
85 53 156 4 37 12 66 18 66 6 0 39 -30 74 -67z m-1728 -18 c0 -52 -2 -56 -39
-80 -21 -14 -51 -27 -67 -28 -29 -2 -29 -1 -32 60 l-3 61 58 20 c84 29 83 30
83 -33z m-202 -152 c-8 -7 -45 -22 -83 -32 -81 -23 -87 -19 -78 49 8 65 29
110 50 110 10 1 41 9 68 19 l50 17 3 -75 c2 -52 -1 -78 -10 -88z m1102 42 c7
-49 18 -121 26 -159 l14 -69 -42 -47 c-24 -27 -46 -48 -50 -49 -23 -3 -108
198 -108 257 0 26 129 175 142 164 4 -4 12 -47 18 -97z m511 -13 l56 -76 -22
-66 c-39 -113 -57 -150 -71 -150 -13 0 -124 159 -124 177 0 4 8 16 18 27 19
22 72 135 72 155 0 23 17 7 71 -67z m-983 -52 c24 -60 42 -117 40 -127 -4 -20
-83 -83 -104 -83 -18 0 -31 32 -50 123 -22 108 -20 130 21 166 20 17 39 31 43
31 4 0 26 -50 50 -110z m1477 40 c16 -18 17 -27 6 -92 -25 -153 -37 -170 -89
-130 l-24 18 25 85 c14 46 28 96 31 112 7 32 26 35 51 7z m-1891 -22 c3 -7 7
-28 10 -45 5 -30 2 -34 -34 -53 -22 -11 -55 -20 -75 -20 -29 0 -37 5 -45 25
-14 37 -6 47 63 76 74 32 77 32 81 17z m230 -59 c3 -17 6 -43 6 -58 0 -14 9
-53 19 -86 17 -52 17 -62 5 -76 -13 -15 -92 -44 -99 -37 -5 5 -55 209 -55 225
0 12 90 63 111 63 4 0 9 -14 13 -31z m1801 -20 c71 -56 69 -47 39 -154 -21
-77 -25 -81 -73 -67 -22 7 -43 17 -47 23 -6 11 5 249 12 249 3 0 34 -23 69
-51z m-440 -71 c36 -29 65 -59 65 -68 0 -29 -46 -153 -86 -230 -22 -41 -47
-96 -57 -123 -11 -26 -23 -47 -28 -47 -14 0 -159 130 -159 143 0 7 11 25 23
41 l24 29 48 -36 c26 -20 54 -37 62 -37 27 0 26 31 -3 63 -71 77 -69 67 -30
138 19 35 40 84 46 109 19 69 19 70 24 70 3 0 35 -23 71 -52z m-916 -13 c12
-31 21 -61 21 -67 0 -6 14 -36 31 -67 l31 -55 -28 -24 c-16 -12 -41 -29 -55
-37 -24 -13 -28 -12 -41 3 -28 33 -108 181 -107 199 0 19 94 103 115 103 7 0
22 -25 33 -55z m-649 39 c0 -3 9 -50 21 -105 11 -55 19 -107 17 -116 -2 -10
-27 -22 -72 -35 -38 -10 -70 -17 -72 -15 -12 12 -54 181 -47 188 4 4 35 26 68
48 55 37 85 50 85 35z m1290 -215 c12 -21 -34 -91 -54 -83 -19 7 -94 115 -107
154 -9 25 -8 35 7 57 l17 27 64 -69 c35 -39 68 -77 73 -86z m-771 -20 l48
-114 -59 -37 c-32 -21 -61 -38 -63 -38 -7 0 -73 124 -95 179 -16 40 -18 57 -9
67 19 23 113 74 122 65 4 -4 29 -59 56 -122z m1250 65 c25 -21 30 -31 25 -52
-12 -49 -63 -224 -66 -225 -31 -16 -46 -30 -63 -60 -19 -36 -19 -39 -3 -67
l17 -30 -27 6 c-22 5 -147 67 -160 79 -2 2 21 37 51 78 30 40 58 84 62 96 3
12 21 48 39 79 82 142 76 138 125 96z"/>
<path d="M7595 7616 l-29 -23 31 -39 c17 -21 40 -48 52 -58 12 -11 21 -24 21
-31 0 -6 -76 -80 -170 -165 -93 -84 -170 -156 -170 -159 0 -3 14 -20 32 -38
l31 -32 140 132 c76 73 155 145 175 161 l35 30 46 -52 c25 -29 51 -52 57 -52
6 0 21 11 33 24 l23 25 -78 83 c-44 46 -106 113 -139 150 l-60 68 -30 -24z"/>
<path d="M2202 7123 l-20 -28 142 -255 c78 -140 147 -264 154 -275 12 -20 12
-20 32 5 42 51 42 54 0 119 -22 34 -40 64 -40 67 0 3 15 24 34 47 18 23 50 68
71 100 32 48 42 56 59 51 12 -4 40 -13 64 -20 l42 -13 27 40 c14 22 24 41 22
43 -5 5 -544 146 -557 146 -6 0 -19 -12 -30 -27z m211 -104 c56 -17 106 -35
111 -39 7 -7 -48 -89 -94 -143 -6 -7 -130 192 -130 208 0 8 6 7 113 -26z"/>
<path d="M7865 6940 c-126 -70 -231 -134 -233 -141 -1 -8 8 -27 20 -42 l23
-28 89 51 c69 40 91 49 98 38 4 -7 18 -28 29 -45 l20 -32 -55 -106 c-31 -58
-56 -112 -56 -120 0 -18 32 -85 40 -85 4 0 33 54 64 120 31 66 59 120 62 120
2 0 23 -9 46 -21 52 -27 113 -22 167 14 69 45 89 131 52 214 -23 50 -119 193
-129 192 -4 0 -110 -58 -237 -129z m244 -6 c36 -46 62 -111 56 -137 -18 -69
-108 -95 -160 -47 -28 26 -90 118 -84 124 12 12 146 85 156 85 6 1 21 -11 32
-25z"/>
<path d="M2835 6415 c-49 -48 -17 -155 47 -155 11 0 6 59 -7 92 -5 13 0 17 27
20 25 2 34 8 36 25 3 17 -3 26 -23 33 -39 15 -53 12 -80 -15z"/>
<path d="M1778 6383 c-36 -22 -59 -67 -103 -202 -31 -92 -35 -115 -24 -122 22
-14 511 -211 514 -207 6 6 35 81 33 83 -2 2 -39 17 -83 35 -44 18 -84 36 -89
41 -10 9 45 220 59 224 6 2 59 7 118 10 118 8 114 5 133 82 l7 26 -69 -7 c-38
-4 -104 -12 -146 -18 l-78 -10 -35 30 c-19 17 -51 36 -72 41 -56 16 -134 13
-165 -6z m163 -96 c51 -34 57 -63 30 -155 -12 -42 -25 -80 -29 -84 -9 -8 -195
67 -200 80 -7 23 32 128 59 154 35 36 91 38 140 5z"/>
<path d="M7960 6214 c0 -4 5 -24 11 -45 l12 -38 75 -3 75 -3 41 -122 42 -122
-47 -47 -47 -46 15 -44 c10 -30 19 -42 27 -36 16 9 316 323 374 390 41 48 44
55 36 85 l-10 32 -302 3 c-166 1 -302 -1 -302 -4z m500 -83 c0 -16 -181 -174
-189 -165 -10 10 -51 141 -51 161 0 10 27 13 120 13 66 0 120 -4 120 -9z"/>
<path d="M2498 5193 c-33 -37 -30 -91 6 -115 31 -21 96 5 96 39 0 18 -60 93
-74 93 -7 0 -20 -8 -28 -17z"/>
<path d="M7689 5168 c-6 -13 -21 -33 -32 -46 l-21 -23 37 -36 37 -37 30 29
c23 22 30 38 30 66 0 62 -56 95 -81 47z"/>
<path d="M1719 5141 c-20 -20 -29 -39 -29 -61 0 -39 47 -90 83 -90 41 0 87 46
87 85 0 47 -8 64 -41 80 -42 22 -67 18 -100 -14z"/>
<path d="M8407 5150 c-34 -27 -43 -70 -22 -110 34 -66 115 -65 148 2 16 33 17
40 3 72 -23 56 -83 72 -129 36z"/>
<path d="M1783 4602 c-143 -31 -163 -38 -163 -55 0 -20 10 -21 106 -1 36 7 40
1 50 -75 l6 -49 -58 -16 c-94 -27 -93 -26 -76 -53 6 -10 20 -9 62 2 84 22 84
22 98 -42 14 -68 10 -73 -75 -100 -55 -17 -58 -20 -44 -41 6 -11 41 -3 170 38
88 28 161 54 161 58 0 4 -4 13 -9 20 -7 11 -21 10 -76 -7 -37 -12 -71 -21 -75
-21 -9 0 -32 109 -25 119 2 4 36 13 75 20 64 12 70 15 70 37 0 13 -2 24 -4 24
-3 0 -37 -7 -77 -15 -40 -9 -74 -14 -75 -12 -8 8 -26 118 -21 123 3 4 36 13
73 20 78 17 77 16 72 42 -3 18 -9 17 -165 -16z"/>
<path d="M8261 4568 c-26 -135 -27 -126 16 -137 101 -26 306 -62 313 -54 8 8
30 124 30 155 0 9 -6 18 -14 21 -11 4 -17 -11 -27 -64 -13 -76 -12 -75 -89
-58 -55 12 -58 18 -41 91 7 31 6 37 -9 41 -15 4 -20 -6 -30 -55 l-11 -59 -37
7 c-75 14 -82 19 -74 61 10 58 8 96 -5 100 -7 3 -15 -16 -22 -49z"/>
<path d="M7626 4479 c-30 -24 -34 -59 -8 -82 33 -30 75 -19 98 25 14 27 14 32
-1 54 -19 30 -53 31 -89 3z"/>
<path d="M8180 4220 c-20 -86 -22 -103 -10 -110 11 -7 18 1 28 36 10 36 17 44
30 40 57 -18 296 -85 298 -83 1 1 4 11 6 22 3 17 -15 24 -154 64 -152 43 -157
45 -152 68 11 42 9 57 -7 60 -12 3 -20 -18 -39 -97z"/>
<path d="M1905 4012 c-88 -8 -161 -16 -162 -16 -1 -1 0 -12 4 -24 5 -21 10
-22 47 -17 41 6 42 6 53 -27 6 -18 17 -48 24 -65 12 -30 11 -34 -15 -62 -27
-28 -28 -51 -2 -51 6 0 65 54 130 120 84 85 117 124 112 135 -3 9 -6 19 -6 21
0 2 -6 3 -12 3 -7 -1 -85 -9 -173 -17z m125 -36 c0 -2 -26 -29 -57 -60 l-58
-56 -17 38 c-28 61 -25 70 30 75 87 7 102 7 102 3z"/>
<path d="M8257 3931 c-134 -14 -161 -19 -173 -35 -8 -11 -14 -23 -14 -27 0 -4
42 -31 93 -60 50 -28 116 -67 146 -86 29 -19 54 -33 56 -31 1 2 5 12 9 23 4
16 -3 25 -34 43 -46 26 -47 33 -20 96 l19 46 54 0 c48 0 55 3 65 25 14 30 25
30 -201 6z m33 -51 c0 -6 -7 -26 -14 -45 l-15 -35 -63 38 -63 37 35 6 c58 10
120 10 120 -1z"/>
<path d="M7300 3828 c0 -13 9 -38 20 -55 32 -53 80 -39 80 24 0 37 -21 53 -69
53 -25 0 -31 -4 -31 -22z"/>
<path d="M2043 3688 c-126 -63 -141 -73 -132 -89 9 -17 13 -18 42 -5 18 7 65
32 105 54 39 23 72 38 72 33 0 -4 -29 -56 -65 -116 -68 -113 -73 -126 -52
-143 9 -8 50 7 155 58 78 38 142 72 142 77 0 4 -4 14 -9 21 -6 10 -34 0 -121
-42 -63 -31 -115 -54 -117 -53 -1 2 31 57 72 122 72 115 89 156 63 154 -7 0
-77 -32 -155 -71z"/>
<path d="M7940 3581 c0 -8 73 -110 190 -269 l24 -32 12 22 c11 19 10 26 -5 43
-32 36 -32 44 1 95 29 45 36 50 65 48 23 -2 37 3 47 17 14 19 8 21 -147 52
-178 36 -187 37 -187 24z m148 -57 c37 -10 68 -18 70 -20 4 -3 -47 -84 -53
-84 -2 0 -25 27 -50 60 -25 33 -43 60 -40 60 3 0 36 -7 73 -16z"/>
<path d="M2279 3319 c-63 -44 -120 -86 -127 -93 -11 -11 -6 -23 30 -67 47 -58
108 -99 147 -99 42 0 111 40 138 81 22 33 25 47 21 98 -3 49 -10 67 -43 110
-22 28 -42 51 -46 51 -3 0 -57 -36 -120 -81z m161 -35 c18 -37 20 -49 11 -77
-21 -63 -90 -109 -149 -99 -28 4 -105 78 -99 95 2 7 45 42 97 80 103 75 105
75 140 1z"/>
<path d="M7782 3297 c-21 -12 -92 -102 -92 -117 0 -4 61 -48 135 -99 124 -84
135 -90 144 -72 9 16 3 24 -44 57 -59 40 -63 45 -40 64 11 9 32 9 87 2 69 -9
74 -9 90 12 17 21 17 21 -62 30 l-80 8 0 30 c0 40 -15 65 -50 83 -35 18 -57
19 -88 2z m84 -52 c19 -19 23 -31 18 -48 -9 -30 -37 -66 -50 -67 -12 0 -94 59
-94 69 0 17 61 71 80 71 11 0 32 -11 46 -25z"/>
<path d="M7464 2931 c-51 -31 -77 -77 -82 -142 -5 -72 19 -117 86 -156 88 -52
184 -26 226 61 22 47 14 74 -39 126 l-44 43 -41 -33 c-32 -25 -38 -35 -29 -46
9 -11 15 -11 34 2 28 18 53 8 80 -32 16 -25 16 -28 -2 -53 -26 -35 -81 -61
-115 -54 -42 8 -106 69 -119 112 -14 48 7 100 55 133 36 25 47 39 40 50 -8 12
-16 10 -50 -11z"/>
<path d="M2691 2771 c-73 -68 -112 -111 -107 -119 13 -21 24 -14 106 64 44 43
82 75 84 73 2 -2 -18 -58 -45 -124 -27 -68 -44 -124 -39 -129 5 -5 59 16 126
48 64 31 119 55 121 52 2 -2 -26 -45 -62 -96 -64 -92 -72 -113 -44 -117 14 -2
171 211 177 239 1 8 -6 22 -17 32 -18 17 -23 15 -125 -39 -59 -32 -106 -51
-106 -45 0 7 18 58 40 112 46 114 46 119 22 141 -16 15 -25 8 -131 -92z"/>
<path d="M7210 2675 c-12 -14 -4 -26 56 -87 38 -39 60 -68 49 -64 -11 4 -58
18 -104 32 -155 45 -159 33 -35 -99 53 -56 102 -108 108 -115 10 -10 15 -10
29 0 16 12 10 21 -58 95 -41 45 -75 84 -75 86 0 3 53 -12 117 -34 115 -38 153
-46 153 -31 -1 11 -65 79 -151 161 -67 63 -78 70 -89 56z"/>
<path d="M3216 2502 c-3 -5 -61 -46 -130 -92 -97 -65 -123 -87 -114 -97 14
-18 25 -16 59 7 32 23 43 20 107 -28 31 -24 33 -29 27 -67 -4 -32 -2 -45 10
-55 8 -7 18 -10 21 -7 3 3 21 77 39 164 24 112 30 161 23 170 -12 15 -34 17
-42 5z m4 -62 c0 -6 -7 -40 -16 -75 l-16 -65 -30 18 c-63 37 -64 45 -6 90 56
43 68 49 68 32z"/>
<path d="M6954 2479 c-6 -10 135 -228 162 -250 6 -5 19 -7 27 -3 13 5 -1 31
-71 135 -82 123 -102 143 -118 118z"/>
<path d="M3393 2235 c-40 -74 -73 -139 -73 -144 0 -5 32 -25 71 -46 60 -32 78
-37 116 -32 27 3 54 14 70 28 57 53 80 158 47 220 -14 28 -124 109 -148 109
-6 0 -44 -61 -83 -135z m126 70 c46 -23 81 -72 81 -112 0 -45 -25 -98 -59
-124 -33 -26 -95 -22 -140 11 l-32 22 58 109 c32 60 59 109 61 109 2 0 16 -7
31 -15z"/>
<path d="M6740 2347 c-96 -51 -92 -42 -55 -106 82 -145 128 -221 134 -221 3 0
12 4 20 9 11 7 8 19 -18 60 -17 28 -31 55 -31 60 0 4 11 13 25 19 21 10 33 6
85 -23 55 -31 64 -33 86 -22 24 13 23 14 -46 47 -68 33 -70 34 -55 57 36 54 1
129 -65 139 -26 4 -47 -1 -80 -19z m100 -37 c38 -38 25 -71 -42 -113 l-28 -17
-25 41 c-40 62 -40 66 -3 89 42 25 73 25 98 0z"/>
<path d="M6450 2198 c-108 -45 -112 -48 -101 -67 8 -12 15 -11 50 3 23 9 44
16 47 16 3 0 32 -56 65 -125 55 -114 77 -142 93 -116 3 5 -21 65 -54 134 -33
69 -60 127 -60 130 0 3 18 12 40 21 22 9 40 23 40 31 0 21 -13 18 -120 -27z"/>
<path d="M3726 2049 c-33 -82 -57 -151 -55 -152 2 -2 44 -20 92 -40 74 -31 89
-34 94 -21 7 18 12 15 -69 49 -38 15 -68 31 -68 36 0 4 9 28 20 53 l19 46 53
-21 c28 -11 55 -22 59 -25 6 -4 23 26 17 31 -2 1 -25 10 -51 20 -27 10 -51 24
-54 31 -5 15 23 84 35 84 5 0 41 -13 80 -29 61 -25 71 -27 77 -13 7 19 1 25
-55 47 -25 9 -65 25 -90 35 l-45 17 -59 -148z"/>
<path d="M6161 2083 c-41 -20 -65 -70 -52 -107 15 -38 49 -56 109 -56 29 0 62
-5 73 -10 19 -11 25 -45 11 -67 -13 -20 -59 -32 -97 -26 -33 5 -37 4 -33 -13
3 -16 12 -19 60 -19 49 0 61 4 88 30 31 30 39 69 20 105 -13 24 -62 40 -121
40 -72 0 -101 38 -59 80 20 20 40 24 89 20 19 -1 22 2 17 15 -3 9 -6 19 -6 21
0 11 -69 2 -99 -13z"/>
<path d="M5682 2043 c-27 -4 -31 -8 -27 -26 2 -12 20 -125 40 -252 47 -304 38
-275 81 -265 19 5 38 10 40 13 2 2 -14 112 -36 243 -50 293 -50 294 -58 292
-4 0 -22 -3 -40 -5z"/>
<path d="M4367 1876 c-35 -61 -74 -127 -86 -147 -21 -36 -21 -37 -2 -42 15 -3
26 5 45 33 27 42 19 41 133 15 18 -4 24 -15 29 -46 4 -25 14 -44 26 -50 11 -6
21 -9 24 -7 3 4 -38 268 -51 324 -3 13 -15 24 -29 26 -22 5 -31 -6 -89 -106z
m86 41 c3 -8 8 -44 12 -82 l8 -68 -44 7 c-24 4 -48 11 -52 15 -9 9 52 140 64
141 4 0 9 -6 12 -13z"/>
<path d="M4702 1824 c-7 -60 -15 -133 -18 -161 -6 -49 -5 -53 14 -53 18 0 22
8 28 61 7 60 7 60 37 57 25 -3 35 -13 66 -68 26 -47 43 -66 60 -68 23 -4 22
-2 -13 65 -20 37 -32 69 -27 71 27 9 60 46 66 72 18 81 -23 120 -135 128 l-66
4 -12 -108z m156 50 c26 -17 29 -59 6 -92 -12 -18 -25 -22 -71 -22 l-56 0 6
59 c3 33 8 64 11 70 8 12 74 3 104 -15z"/>
<path d="M5020 1898 c0 -15 9 -18 50 -18 l50 0 0 -145 c0 -138 1 -145 20 -145
19 0 20 7 20 145 l0 145 55 0 c41 0 55 4 55 14 0 12 -24 15 -125 18 -114 3
-125 1 -125 -14z"/>
<path d="M5357 1664 c-12 -13 -7 -42 8 -48 13 -5 13 -10 -1 -46 -17 -43 -15
-56 10 -47 22 9 41 82 30 115 -9 26 -33 39 -47 26z"/>
</g>
</svg>
