<?xml version="1.0" encoding="utf-8"?>
<!-- Generator: Adobe Illustrator 27.5.0, SVG Export Plug-In . SVG Version: 6.00 Build 0)  -->
<svg version="1.1" xmlns="http://www.w3.org/2000/svg" xmlns:xlink="http://www.w3.org/1999/xlink" x="0px" y="0px"
	 viewBox="0 0 900 600" style="enable-background:new 0 0 900 600;" xml:space="preserve">
<g id="Layer_2">
	<rect style="fill:none;" width="900" height="600"/>
	<rect style="opacity:0;fill:none;" width="900" height="600"/>
</g>
<g id="Layer_1">
	<g>
		<g>
			<path style="fill:#FFEDE6;" d="M177.105,551.532c-27.578-45.155-55.715-91.774-64.234-143.961
				c-8.519-52.186,7.235-111.944,51.722-140.697c34.91-22.563,79.562-22.117,118.976-35.386
				c95.563-32.17,149.545-139.991,244.727-173.268c73.424-25.67,159.364,1.368,213.347,57.254
				c53.982,55.886,78.003,136.173,75.716,213.744c-2.288,77.571-28.842,152.774-64.816,221.585L177.105,551.532z"/>
		</g>
	</g>
	<g>
		<path style="fill:#FFDCCF;" d="M660.373,548.79H268.11c-16.598,0-30.178-13.58-30.178-30.178V209.21
			c0-16.598,13.58-30.178,30.178-30.178h392.263c16.598,0,30.179,13.58,30.179,30.178v309.402
			C690.551,535.21,676.971,548.79,660.373,548.79z"/>
	</g>
	<g>
		<g>
			<path style="fill:#FFEDE6;" d="M355.719,154.953c5.428-9.463,6.65-22.018,0.507-31.033
				c-7.419-10.887-22.553-13.237-35.667-11.974c-25.271,2.434-48.624,14.354-70.183,27.763
				c-17.326,10.776-36.943,26.03-34.735,48.948c1.614,16.75,12.643,22.808,28.352,22.314
				C278.919,209.873,337.887,186.041,355.719,154.953z"/>
		</g>
	</g>
	<g>
		<g>
			<g>
				<path style="fill:#AFCAF9;" d="M680.548,207.465v38.894H227.93v-38.894c0-15.704,14.976-28.434,33.434-28.434h385.732
					C665.571,179.031,680.548,191.761,680.548,207.465z"/>
			</g>
		</g>
		<g>
			<g>
				<path style="fill:#FDFFFE;" d="M227.93,246.855h452.617H227.93z"/>
			</g>
			<g>
				<path style="fill:#FDFFFE;" d="M680.548,387.628v134.83c0,14.537-14.976,26.332-33.451,26.332H261.364
					c-18.458,0-33.434-11.795-33.434-26.332V412.213V245.855h452.617V387.628L680.548,387.628z"/>
			</g>
		</g>
		<g>
			<g>
				<g>
					<g>
						<ellipse style="fill:#D7E4F9;" cx="355.786" cy="208.954" rx="11.292" ry="11.969"/>
					</g>
				</g>
				<g>
					<g>
						<path style="fill:#5E3B3B;" d="M355.866,214.19h-0.16c-3.968,0-7.185-3.217-7.185-7.185v-45.224
							c0-3.968,3.217-7.185,7.185-7.185h0.16c3.968,0,7.185,3.217,7.185,7.185v45.224
							C363.051,210.973,359.834,214.19,355.866,214.19z"/>
					</g>
				</g>
			</g>
			<g>
				<g>
					<g>
						<ellipse style="fill:#D7E4F9;" cx="297.207" cy="208.954" rx="11.292" ry="11.969"/>
					</g>
				</g>
				<g>
					<g>
						<path style="fill:#5E3B3B;" d="M297.288,214.19h-0.16c-3.968,0-7.185-3.217-7.185-7.185v-45.224
							c0-3.968,3.217-7.185,7.185-7.185h0.16c3.968,0,7.185,3.217,7.185,7.185v45.224
							C304.473,210.973,301.256,214.19,297.288,214.19z"/>
					</g>
				</g>
			</g>
			<g>
				<g>
					<g>
						<ellipse style="fill:#D7E4F9;" cx="419.657" cy="208.954" rx="11.292" ry="11.969"/>
					</g>
				</g>
				<g>
					<g>
						<path style="fill:#5E3B3B;" d="M419.737,214.19h-0.16c-3.968,0-7.185-3.217-7.185-7.185v-45.224
							c0-3.968,3.217-7.185,7.185-7.185h0.16c3.968,0,7.185,3.217,7.185,7.185v45.224
							C426.922,210.973,423.705,214.19,419.737,214.19z"/>
					</g>
				</g>
			</g>
			<g>
				<g>
					<g>
						<ellipse style="fill:#D7E4F9;" cx="483.528" cy="208.954" rx="11.292" ry="11.969"/>
					</g>
				</g>
				<g>
					<g>
						<path style="fill:#5E3B3B;" d="M483.608,214.19h-0.16c-3.968,0-7.185-3.217-7.185-7.185v-45.224
							c0-3.968,3.217-7.185,7.185-7.185h0.16c3.968,0,7.185,3.217,7.185,7.185v45.224
							C490.793,210.973,487.576,214.19,483.608,214.19z"/>
					</g>
				</g>
			</g>
			<g>
				<g>
					<g>
						<ellipse style="fill:#D7E4F9;" cx="547.399" cy="208.954" rx="11.292" ry="11.969"/>
					</g>
				</g>
				<g>
					<g>
						<path style="fill:#5E3B3B;" d="M547.479,214.19h-0.16c-3.968,0-7.185-3.217-7.185-7.185v-45.224
							c0-3.968,3.217-7.185,7.185-7.185h0.16c3.968,0,7.185,3.217,7.185,7.185v45.224
							C554.664,210.973,551.448,214.19,547.479,214.19z"/>
					</g>
				</g>
			</g>
			<g>
				<g>
					<g>
						<ellipse style="fill:#D7E4F9;" cx="611.271" cy="208.954" rx="11.292" ry="11.969"/>
					</g>
				</g>
				<g>
					<g>
						<path style="fill:#5E3B3B;" d="M611.351,214.19h-0.16c-3.968,0-7.185-3.217-7.185-7.185v-45.224
							c0-3.968,3.217-7.185,7.185-7.185h0.16c3.968,0,7.185,3.217,7.185,7.185v45.224
							C618.536,210.973,615.319,214.19,611.351,214.19z"/>
					</g>
				</g>
			</g>
		</g>
		<g>
			<g>
				<g>
					<g>
						<rect x="254.862" y="297.992" style="fill:#DCE7F9;" width="42.345" height="34.624"/>
					</g>
				</g>
				<g>
					<g>
						<rect x="254.862" y="353.004" style="fill:#DCE7F9;" width="42.346" height="34.624"/>
					</g>
				</g>
				<g>
					<g>
						<rect x="254.862" y="408.017" style="fill:#DCE7F9;" width="42.346" height="34.624"/>
					</g>
				</g>
				<g>
					<g>
						<rect x="254.862" y="463.029" style="fill:#DCE7F9;" width="42.346" height="34.624"/>
					</g>
				</g>
			</g>
			<g>
				<g>
					<g>
						<rect x="314.263" y="297.992" style="fill:#DCE7F9;" width="42.345" height="34.624"/>
					</g>
				</g>
				<g>
					<g>
						<rect x="314.263" y="353.004" style="fill:#F75D59;" width="42.345" height="34.624"/>
					</g>
				</g>
				<g>
					<g>
						<rect x="314.263" y="408.017" style="fill:#DCE7F9;" width="42.345" height="34.624"/>
					</g>
				</g>
				<g>
					<g>
						<rect x="314.263" y="463.029" style="fill:#DCE7F9;" width="42.345" height="34.624"/>
					</g>
				</g>
			</g>
			<g>
				<g>
					<g>
						<rect x="373.665" y="297.992" style="fill:#DCE7F9;" width="42.346" height="34.624"/>
					</g>
				</g>
				<g>
					<g>
						<rect x="373.665" y="353.004" style="fill:#DCE7F9;" width="42.346" height="34.624"/>
					</g>
				</g>
				<g>
					<g>
						<rect x="373.665" y="408.017" style="fill:#DCE7F9;" width="42.346" height="34.624"/>
					</g>
				</g>
				<g>
					<g>
						<rect x="373.665" y="463.029" style="fill:#DCE7F9;" width="42.346" height="34.624"/>
					</g>
				</g>
			</g>
			<g>
				<g>
					<g>
						<rect x="433.066" y="297.992" style="fill:#DCE7F9;" width="42.346" height="34.624"/>
					</g>
				</g>
				<g>
					<g>
						<rect x="433.066" y="353.004" style="fill:#DCE7F9;" width="42.346" height="34.624"/>
					</g>
				</g>
				<g>
					<g>
						<rect x="433.066" y="408.017" style="fill:#DCE7F9;" width="42.346" height="34.624"/>
					</g>
				</g>
				<g>
					<g>
						<rect x="433.066" y="463.029" style="fill:#DCE7F9;" width="42.346" height="34.624"/>
					</g>
				</g>
			</g>
			<g>
				<g>
					<g>
						<rect x="492.468" y="297.992" style="fill:#DCE7F9;" width="42.346" height="34.624"/>
					</g>
				</g>
				<g>
					<g>
						<rect x="492.468" y="353.004" style="fill:#DCE7F9;" width="42.346" height="34.624"/>
					</g>
				</g>
				<g>
					<g>
						<rect x="492.468" y="408.017" style="fill:#DCE7F9;" width="42.346" height="34.624"/>
					</g>
				</g>
				<g>
					<g>
						<rect x="492.468" y="463.029" style="fill:#DCE7F9;" width="42.346" height="34.624"/>
					</g>
				</g>
			</g>
			<g>
				<g>
					<g>
						<rect x="551.869" y="408.017" style="fill:#FCBEBE;" width="42.346" height="34.624"/>
					</g>
				</g>
				<g>
					<g>
						<rect x="551.869" y="297.992" style="fill:#FCBEBE;" width="42.346" height="34.624"/>
					</g>
				</g>
				<g>
					<g>
						<rect x="551.869" y="353.004" style="fill:#FCBEBE;" width="42.346" height="34.624"/>
					</g>
				</g>
				<g>
					<g>
						<rect x="551.869" y="463.029" style="fill:#FCBEBE;" width="42.346" height="34.624"/>
					</g>
				</g>
			</g>
			<g>
				<g>
					<g>
						<rect x="611.271" y="463.029" style="fill:#FCBEBE;" width="42.346" height="34.624"/>
					</g>
				</g>
				<g>
					<g>
						<rect x="611.271" y="297.992" style="fill:#FCBEBE;" width="42.346" height="34.624"/>
					</g>
				</g>
				<g>
					<g>
						<rect x="611.271" y="353.004" style="fill:#FCBEBE;" width="42.346" height="34.624"/>
					</g>
				</g>
				<g>
					<g>
						<rect x="611.271" y="408.017" style="fill:#FCBEBE;" width="42.346" height="34.624"/>
					</g>
				</g>
			</g>
			<g>
				<g>
					<g>
						<polygon style="fill:#FDFFFE;" points="333.266,383.395 320.903,366.842 324.818,363.557 333.216,374.801 346.016,357.213 
							349.969,360.446 						"/>
					</g>
				</g>
			</g>
		</g>
	</g>
	<g>
		<g>
			<path style="fill:#5E3B3B;" d="M660.635,550.29H261.361c-19.261,0-34.93-12.484-34.93-27.83V326.752h3V522.46
				c0,13.691,14.324,24.83,31.93,24.83h399.273V550.29z"/>
		</g>
		<g>
			<rect x="679.051" y="369.91" style="fill:#5E3B3B;" width="3" height="65.754"/>
		</g>
		<g>
			<path style="fill:#5E3B3B;" d="M682.051,306.834h-3V207.46c0-14.849-14.332-26.93-31.949-26.93h-385.74
				c-6.433,0-12.636,1.61-17.938,4.656c-8.761,5.034-13.992,13.36-13.992,22.274h-3c0-10.001,5.793-19.3,15.497-24.875
				c5.756-3.307,12.476-5.055,19.433-5.055h385.74c19.271,0,34.949,13.426,34.949,29.93V306.834z"/>
		</g>
	</g>
	<g>
		<g>
			<g>
				<g>
					<g>
						<g>
							<polygon style="fill:#FFB486;" points="763.399,538.284 765.021,519.306 751.107,519.306 751.95,538.284 							"/>
						</g>
					</g>
				</g>
			</g>
			<g>
				<g>
					<g>
						<path style="fill:#FCA377;" d="M764.978,519.607l-0.924,10.682c-4.902,0.313-9.635-0.291-12.504-0.785l-0.499-11.03
							L764.978,519.607z"/>
					</g>
				</g>
			</g>
		</g>
		<g>
			<g>
				<g>
					<g>
						<path style="fill:#4A292F;" d="M767.066,548.437h-36.195c-0.044-0.429-0.131-1.751,0.145-3.139
							c0.014-0.029,35.54,0.203,35.54,0.203L767.066,548.437z"/>
					</g>
				</g>
			</g>
			<g>
				<g>
					<g>
						<path style="fill:#4A292F;" d="M766.557,545.502l-35.526-0.233c0.341-3.677,4.956-5.406,9.265-6.503
							c0.291-0.073,0.574-0.138,0.857-0.211c0.618-0.145,1.221-0.276,1.795-0.407c0.298-0.065,0.589-0.131,0.865-0.189
							c1.49-0.334,2.725-0.618,3.437-0.952c0.639-0.305,1.417-0.748,2.093-1.155c0.233-0.138,0.443-0.276,0.639-0.4
							c0.639-0.4,1.097-0.705,1.097-0.705c2.325,0.763,5.828,2.95,13.516-0.53l0.233,1.337l0.131,0.756L766.557,545.502z"/>
					</g>
				</g>
			</g>
			<g>
				<g>
					<g>
						<g>
							<g>
								<path style="fill:#4A292F;" d="M739.831,541.12c0.007-0.073,0.051-1.163,0.465-2.354L739.831,541.12z"/>
							</g>
						</g>
					</g>
				</g>
				<g>
					<g>
						<g>
							<g>
								<path style="fill:#4A292F;" d="M742.433,540.662c0-0.08,0.051-1.264,0.516-2.514L742.433,540.662z"/>
							</g>
						</g>
					</g>
				</g>
			</g>
			<g>
				<g>
					<g>
						<g>
							<path style="fill:#4A292F;" d="M749.982,535.452c1.352,1.155,6.3,4.454,14.846,0.102L749.982,535.452z"/>
						</g>
					</g>
				</g>
			</g>
		</g>
		<g>
			<g>
				<path style="fill:#5E3B3B;" d="M740.098,525.525c13.159,2.065,25.387,2.925,34.686,0c0,0,7.868-88.201-6.08-169.241
					l-27.895,0.122C740.809,356.406,730.08,453.8,740.098,525.525z"/>
			</g>
		</g>
		<g>
			<g>
				<g>
					<path style="fill:#5E3B3B;" d="M739.024,275.619c-5.317-1.286-8.617-3.601-9.809-6.88c-1.737-4.781,1.658-9.619,2.051-10.155
						l1.049,0.768c-0.14,0.191-3.41,4.725-1.877,8.942c1.033,2.845,4.024,4.884,8.891,6.061L739.024,275.619z"/>
				</g>
			</g>
		</g>
		<g>
			<g>
				<g>
					<g>
						<g>
							<polygon style="fill:#FFB486;" points="681.905,538.284 687.888,519.306 673.974,519.306 669.73,538.284 							"/>
						</g>
					</g>
				</g>
			</g>
			<g>
				<g>
					<g>
						<path style="fill:#FCA377;" d="M687.917,519.144l-3.299,10.435c-6.264,1.119-11.089,0.058-12.804-0.422l2.369-10.602h4.97
							L687.917,519.144z"/>
					</g>
				</g>
			</g>
		</g>
		<g>
			<g>
				<g>
					<path style="fill:#F75D59;" d="M755.502,300.215c0,0,37.551,6.884,34.17,44.026c-1.405,15.44-13.076,26.113-13.076,26.113
						l-4.286-13.052l-15.021,5.052L755.502,300.215z"/>
				</g>
			</g>
		</g>
		<g>
			<g>
				<g>
					<polygon style="fill:#FFB587;" points="734.646,303.801 737.282,283.604 749.221,283.604 752.04,303.801 					"/>
				</g>
			</g>
		</g>
		<g>
			<g>
				<g>
					<path style="fill:#FFB587;" d="M740.749,291.404c7.548-2.122,16.46-12.539,13.13-24.576
						c-2.641-9.549-18.952-6.915-23.305,1.281C723.821,280.819,723.403,296.28,740.749,291.404z"/>
				</g>
			</g>
		</g>
		<g>
			<g>
				<g>
					<g>
						<path style="fill:#FFBA8C;" d="M671.87,324.008c-0.726-0.52-3.113-2.111-3.496-2.917c-0.355-0.748-1.753-5.037-2.635-4.658
							c-0.925,0.397,0.652,3.148-0.131,3.337c-0.483,0.116-3.663-5.225-4.511-4.36c-0.557,0.568,1.809,3.541,1.411,3.726
							c-0.37,0.172-2.521-4.099-3.389-3.299c-0.909,0.838,2.984,4.437,2.542,4.8c-0.218,0.179-3.596-4.569-4.288-3.896
							c-0.924,0.898,2.898,4.2,2.512,4.646c-0.19,0.219-1.332-1.189-2.118-1.94c-0.436-0.417-0.842-0.132-0.714,0.257
							c1.326,4.029,7.724,7.755,8.141,8.344c0.62,0.875,1.246,1.717,1.878,2.528L671.87,324.008z"/>
					</g>
				</g>
			</g>
		</g>
		<g>
			<g>
				<g>
					<path style="fill:#5E3B3B;" d="M663.398,524.679c12.702,1.796,24.583,2.214,34.897,0
						c42.808-79.414,60.723-169.119,60.723-169.119h-33.075C683.222,429.155,663.398,524.679,663.398,524.679z"/>
				</g>
			</g>
		</g>
		<g>
			<g>
				<g>
					<path style="fill:#F75D59;" d="M690.949,332.491l-18.776-10.103l-6.841,8.895c0,0,11.067,28.847,32.769,26.421
						c17.361-1.941,27.828-34.483,27.828-34.483L690.949,332.491z"/>
				</g>
			</g>
		</g>
		<g>
			<g>
				<g>
					<path style="fill:#F75D59;" d="M776.977,379.729c-29.863,13.594-73.272,1.695-73.272,1.695l1.324-4.398l0.203-0.679
						l11.29-37.595l-29.688-0.357c0,0,19.89-27.909,31.474-34.696c3.026-1.772,7.081-3.11,11.668-3.95
						c0.357-0.063,0.721-0.126,1.086-0.182c7.459-1.219,16.185-1.135,24.134,0.546c0.28,0.056,0.56,0.119,0.833,0.182
						c4.461,1.008,8.649,2.528,12.2,4.615c0,0-2.129,11.99,0.855,20.135c6.786,18.517,7.809,40.635,7.914,50.062
						c0.007,0.266,0.007,0.518,0.007,0.763C777.026,378.322,776.977,379.729,776.977,379.729z"/>
				</g>
			</g>
		</g>
		<g>
			<g>
				<path style="fill:#E05353;" d="M750.871,385.904c-0.442,0.033-0.883,0.066-1.325,0.099c-0.32,0.022-0.64,0.044-0.961,0.055
					c-23.235,1.303-44.88-4.638-44.88-4.638l1.325-4.395l0.199-0.674l8.773-29.33c1.48-1.513,8.92-13.635,10.08-18.539
					c0,0,0.493,12.547-3.454,22.838c-2.492,6.496-5.287,16.145-1.974,22.274C722.95,381.536,750.495,385.794,750.871,385.904z"/>
			</g>
		</g>
		<g>
			<g>
				<g>
					
						<rect x="685.205" y="327.611" transform="matrix(0.6313 -0.7756 0.7756 0.6313 1.6918 660.0789)" style="fill:#5E3B3B;" width="19.651" height="1.299"/>
				</g>
			</g>
		</g>
		<g>
			<g>
				<g>
					<path style="fill:#5E3B3B;" d="M734.589,292.619c-3.73,0-5.757-1.922-5.871-2.034l0.908-0.93
						c0.134,0.128,3.325,3.149,9.405,0.74l0.478,1.209C737.636,292.347,735.992,292.619,734.589,292.619z"/>
				</g>
			</g>
		</g>
		<g>
			<g>
				<g>
					<path style="fill:#FFB587;" d="M751.423,299.251c-8.807,4.139-16.116-0.382-16.116-0.382l0.206-1.615l15.588-0.205
						L751.423,299.251z"/>
				</g>
			</g>
		</g>
		<g>
			<g>
				<g>
					<g>
						<path style="fill:#5E3B3B;" d="M742.001,382.796c-17.17,0-31.699-3.599-37.149-5.146l0.355-1.25
							c5.398,1.532,19.787,5.095,36.794,5.095c13.02,0,24.713-2.095,34.758-6.227l0.494,1.203
							C767.051,380.668,755.19,382.796,742.001,382.796z"/>
					</g>
				</g>
			</g>
		</g>
		<g>
			<g>
				<g>
					<path style="fill:#5E3B3B;" d="M778.005,379.73h-1.301c0-0.32-0.09-32.27-7.877-54.595l1.227-0.428
						C777.914,347.238,778.005,379.408,778.005,379.73z"/>
				</g>
			</g>
		</g>
		<g>
			<g>
				<g>
					<g>
						<path style="fill:#5E3B3B;" d="M745.18,304.456c-6.229,0-12.132-2.996-14.442-4.327l0.648-1.127
							c3.449,1.986,15.325,7.899,23.375,0.628l0.871,0.965C752.455,303.464,748.763,304.456,745.18,304.456z"/>
					</g>
				</g>
			</g>
		</g>
		<g>
			<g>
				<g>
					<g>
						<path style="fill:#4A292F;" d="M685.805,548.437H649.61c-0.044-0.429-0.131-1.751,0.145-3.139
							c0.015-0.029,35.541,0.203,35.541,0.203L685.805,548.437z"/>
					</g>
				</g>
			</g>
			<g>
				<g>
					<g>
						<path style="fill:#4A292F;" d="M685.296,545.502l-35.526-0.233c0.341-3.677,4.956-5.406,9.265-6.503
							c0.291-0.073,0.574-0.138,0.857-0.211c0.618-0.145,1.221-0.276,1.795-0.407c0.298-0.065,0.589-0.131,0.865-0.189
							c1.49-0.334,2.725-0.618,3.437-0.952c0.639-0.305,1.417-0.748,2.093-1.155c0.233-0.138,0.443-0.276,0.64-0.4
							c0.639-0.4,1.097-0.705,1.097-0.705c2.325,0.763,5.828,2.95,13.516-0.53l0.233,1.337l0.131,0.756L685.296,545.502z"/>
					</g>
				</g>
			</g>
			<g>
				<g>
					<g>
						<g>
							<g>
								<path style="fill:#4A292F;" d="M658.57,541.12c0.007-0.073,0.051-1.163,0.465-2.354L658.57,541.12z"/>
							</g>
						</g>
					</g>
				</g>
				<g>
					<g>
						<g>
							<g>
								<path style="fill:#4A292F;" d="M661.171,540.662c0-0.08,0.051-1.264,0.516-2.514L661.171,540.662z"/>
							</g>
						</g>
					</g>
				</g>
			</g>
			<g>
				<g>
					<g>
						<g>
							<path style="fill:#4A292F;" d="M668.721,535.452c1.352,1.155,6.3,4.454,14.846,0.102L668.721,535.452z"/>
						</g>
					</g>
				</g>
			</g>
		</g>
		<g>
			<g>
				<g>
					
						<rect x="718.776" y="332.787" transform="matrix(0.6654 -0.7465 0.7465 0.6654 -6.7618 651.7891)" style="fill:#5E3B3B;" width="9.865" height="1.3"/>
				</g>
			</g>
		</g>
		<g>
			<g>
				<g>
					<path style="fill:#5E3B3B;" d="M774.257,377.029h-1.301c0-7.356-0.95-17.734-0.96-17.836l1.295-0.123
						C773.3,359.171,774.257,369.62,774.257,377.029z"/>
				</g>
			</g>
		</g>
		<g>
			<g>
				<g>
					<path style="fill:#5E3B3B;" d="M695.556,358.873c-20.474,0-31.075-26.949-31.18-27.222l1.213-0.467
						c0.102,0.264,10.376,26.388,29.967,26.388c0.832,0,1.678-0.047,2.516-0.141c16.981-1.898,27.173-32.973,27.598-34.295
						l1.238,0.398c-0.436,1.354-10.884,33.197-28.691,35.188C697.331,358.822,696.435,358.873,695.556,358.873z"/>
				</g>
			</g>
		</g>
		<g>
			<g>
				<path style="fill:#5E3B3B;" d="M776.259,321.876c-7.84,4.681-26.449,3.553-33.126-12.007
					c-4.92-11.465-2.507-24.453-1.351-28.069l-2.028-6.418c0,0-10.208-4.46-7.646-16.232c0,0,1.126,0.895,4.583,0.607
					c1.921-0.166,7.001-2.054,12.015-0.983c0.011,0,0.033,0,0.044,0.011c4.528,0.585,13.981,3.722,14.942,18.707
					c0.795,12.357,11.087,13.683,15.957,18.652C789.401,306.073,785.118,316.586,776.259,321.876z"/>
			</g>
		</g>
		<g>
			<g>
				<g>
					<path style="fill:#FFB587;" d="M744.337,278.483c0,1.857-1.505,3.361-3.361,3.361s-3.361-1.505-3.361-3.361
						c0-1.856,1.505-3.361,3.361-3.361S744.337,276.627,744.337,278.483z"/>
				</g>
			</g>
		</g>
		<g>
			<g>
				<g>
					<path style="fill:#5E3B3B;" d="M787.931,302.589c-0.792-3.195-2.792-6.206-5.945-8.947c-1.48-1.291-3.389-2.249-5.409-3.262
						c-5.145-2.583-10.464-5.253-11.708-13.883c-2.105-14.648-11.744-16.719-15.791-16.929l-0.104-0.012
						c-3.651-0.478-7.222,0.616-9.585,1.341c-0.812,0.249-1.513,0.464-2.01,0.547l-0.213-1.282c0.412-0.068,1.107-0.282,1.842-0.508
						c2.47-0.758,6.206-1.902,10.141-1.386c4.365,0.229,14.765,2.441,17.008,18.044c1.146,7.958,6.158,10.473,11.005,12.906
						c2.095,1.052,4.074,2.045,5.679,3.443c3.358,2.92,5.496,6.155,6.354,9.615L787.931,302.589z"/>
				</g>
			</g>
		</g>
		<g>
			<g>
				<path style="fill:#4A292F;" d="M768.551,526.877c-8.238,1.159-18.056,0.287-28.447-1.347
					c-3.909-27.995-4.451-59.475-3.921-87.977c0.021,0.33,8.553-27.162,8.553-27.162s-3.718,21.474-2.444,34.398
					c1.316,13.346,6.203,17.293,8.083,32.331c1.099,8.791-3.289,15.414-1.692,24.624c1.682,9.694,9.112,15.691,16.368,22.207
					C766.099,524.901,767.402,525.85,768.551,526.877z"/>
			</g>
		</g>
		<g>
			<g>
				<g>
					<path style="fill:#FDFFFE;" d="M736.371,439.38l-1.229-0.428c3.484-10.006,6.823-20.303,9.925-30.604l1.244,0.375
						C743.205,419.042,739.86,429.356,736.371,439.38z"/>
				</g>
			</g>
		</g>
		<g>
			<g>
				<path style="fill:#4A292F;" d="M700.282,520.94c-0.651,1.248-1.314,2.496-1.988,3.744c-10.314,2.209-22.197,1.789-34.896,0
					c0,0,9.033-43.521,28.039-94.441c0.883,9.331-1.414,19.049-4.152,28.16c-3.611,11.982-8.017,24.185-6.913,36.652
					c0.795,9.033,5.455,18.663,13.384,23.511C695.644,519.726,697.941,520.377,700.282,520.94z"/>
			</g>
		</g>
		<g>
			<g>
				<g>
					<path style="fill:#FDFFFE;" d="M689.641,438.221l-1.223-0.439c7.767-21.614,15.672-40.95,22.86-55.917l1.172,0.563
						C705.28,397.354,697.394,416.648,689.641,438.221z"/>
				</g>
			</g>
		</g>
	</g>
	<g>
		<g>
			<g>
				<g>
					<path style="fill:#FFC76C;" d="M278.449,319.357l-54.26-13.29c-13.94,8.44-30.29,13.29-47.78,13.29
						c-51.06,0-92.46-41.4-92.46-92.47c0-51.06,41.4-92.46,92.46-92.46c51.07,0,92.47,41.4,92.47,92.46
						c0,12.55-2.5,24.52-7.04,35.43L278.449,319.357z"/>
				</g>
			</g>
			<g>
				<g>
					<g>
						
							<ellipse transform="matrix(0.7071 -0.7071 0.7071 0.7071 -108.7658 191.1974)" style="fill:#FFFFFF;" cx="176.413" cy="226.891" rx="77.943" ry="77.944"/>
					</g>
					<g>
						<g>
							
								<ellipse transform="matrix(0.7071 -0.7071 0.7071 0.7071 -108.7658 191.1974)" style="fill:#FFFFFF;" cx="176.413" cy="226.891" rx="77.943" ry="77.944"/>
						</g>
					</g>
				</g>
				<g>
					<path style="fill:#5E3B3B;" d="M222.379,238.282l-43.134-13.885l-22.523-53.454c-0.506-1.202-1.677-1.979-2.981-1.979
						c-0.433,0-0.856,0.085-1.255,0.254c-1.644,0.692-2.418,2.593-1.726,4.237l21.254,50.442l-58.33-17.25
						c-0.149-0.043-0.303-0.066-0.458-0.066c-0.724,0-1.365,0.487-1.56,1.183c-0.237,0.847,0.256,1.74,1.1,1.99l60.874,18.002
						l0.285,0.676l-0.306,0.951l0.818,0.263l0.305,0.723l0.841-0.354l44.814,14.425c0.322,0.103,0.655,0.156,0.992,0.156
						c1.409,0,2.647-0.901,3.079-2.244C225.013,240.654,224.076,238.828,222.379,238.282z"/>
				</g>
				<g>
					<g>
						<path style="fill:#5E3B3B;" d="M167.349,173.74v2.334h8.534v-2.334h-2.766v-12.752h-2.109l-4.667,4.042l0.808,1.11
							c0.084,0.126,0.204,0.232,0.354,0.314c0.152,0.082,0.321,0.124,0.503,0.124c0.115,0,0.233-0.021,0.352-0.063
							c0.118-0.041,0.233-0.106,0.356-0.205l1.657-1.417v8.846H167.349z"/>
					</g>
					<g>
						<path style="fill:#5E3B3B;" d="M186.193,173.416c0,0-4.811,0.001-4.864,0.003l2.64-2.703c0.398-0.403,0.773-0.799,1.127-1.186
							c0.367-0.402,0.695-0.822,0.976-1.25c0.289-0.44,0.521-0.907,0.691-1.388c0.175-0.497,0.264-1.041,0.264-1.618
							c0-0.683-0.123-1.306-0.367-1.852c-0.244-0.546-0.583-1.017-1.011-1.4c-0.425-0.38-0.933-0.673-1.511-0.871
							c-0.567-0.193-1.182-0.292-1.829-0.292c-0.652,0-1.271,0.096-1.841,0.286c-0.576,0.191-1.095,0.478-1.543,0.85
							c-0.451,0.374-0.828,0.842-1.119,1.392c-0.288,0.544-0.483,1.171-0.583,1.866l-0.068,0.481l1.406,0.241l0.144,0.017
							c0.052,0.005,0.103,0.007,0.151,0.007c0.287,0,0.531-0.081,0.728-0.24c0.187-0.151,0.322-0.376,0.409-0.696
							c0.052-0.247,0.144-0.476,0.273-0.681c0.13-0.207,0.29-0.388,0.477-0.538c0.188-0.15,0.406-0.269,0.651-0.354
							c0.246-0.086,0.521-0.129,0.816-0.129c0.298,0,0.579,0.042,0.834,0.126c0.245,0.081,0.451,0.197,0.629,0.355
							c0.174,0.154,0.308,0.347,0.411,0.59c0.105,0.248,0.157,0.547,0.157,0.891c0,0.357-0.051,0.696-0.152,1.008
							c-0.105,0.323-0.258,0.648-0.455,0.965c-0.203,0.326-0.452,0.659-0.741,0.988c-0.301,0.343-0.635,0.701-0.999,1.071l-4.5,4.52
							c-0.163,0.162-0.282,0.344-0.355,0.541c-0.07,0.187-0.106,0.374-0.106,0.559v1.099h10.377v-1.56
							c0-0.31-0.108-0.581-0.313-0.785C186.854,173.586,186.599,173.416,186.193,173.416z"/>
					</g>
					<g>
						<path style="fill:#5E3B3B;" d="M180.365,283.582c-0.426-0.4-0.929-0.71-1.494-0.919c-0.558-0.206-1.154-0.31-1.771-0.31
							c-0.302,0-0.594,0.024-0.874,0.072l4.359-5.517h-2.582c-0.287,0-0.55,0.06-0.783,0.176c-0.229,0.115-0.415,0.263-0.56,0.448
							l-3.56,4.796c-0.619,0.83-1.08,1.621-1.369,2.35c-0.297,0.749-0.447,1.471-0.447,2.147c0,0.789,0.121,1.516,0.36,2.16
							c0.243,0.656,0.596,1.224,1.048,1.687c0.453,0.464,1.005,0.826,1.641,1.076c0.629,0.248,1.336,0.374,2.102,0.374
							c0.772,0,1.494-0.131,2.146-0.389c0.655-0.259,1.225-0.622,1.691-1.078c0.468-0.457,0.837-1,1.097-1.614
							c0.26-0.614,0.393-1.287,0.393-2c0-0.732-0.125-1.397-0.374-1.977C181.137,284.483,180.794,283.984,180.365,283.582z
							 M173.97,287.13c0-0.321,0.059-0.634,0.177-0.931c0.115-0.293,0.284-0.554,0.501-0.776c0.217-0.222,0.487-0.402,0.803-0.535
							c0.315-0.134,0.679-0.201,1.08-0.201c0.376,0,0.724,0.059,1.031,0.174c0.303,0.114,0.553,0.272,0.766,0.482
							c0.209,0.206,0.376,0.464,0.494,0.767c0.121,0.31,0.182,0.666,0.182,1.06c0,0.365-0.062,0.705-0.185,1.01
							c-0.122,0.302-0.295,0.565-0.516,0.782c-0.223,0.221-0.495,0.395-0.809,0.518c-0.319,0.126-0.686,0.19-1.091,0.19
							c-0.398,0-0.753-0.062-1.054-0.185c-0.293-0.118-0.544-0.287-0.745-0.502c-0.202-0.215-0.359-0.479-0.466-0.783
							C174.027,287.882,173.97,287.521,173.97,287.13z"/>
					</g>
					<g>
						<path style="fill:#5E3B3B;" d="M241.491,227.034c-0.302-0.372-0.688-0.685-1.153-0.934c0.335-0.209,0.628-0.467,0.871-0.768
							c0.25-0.312,0.443-0.674,0.575-1.079c0.13-0.399,0.196-0.852,0.196-1.348c0-0.612-0.117-1.18-0.349-1.688
							c-0.232-0.509-0.561-0.95-0.977-1.308c-0.411-0.355-0.904-0.632-1.467-0.822c-0.553-0.187-1.162-0.281-1.808-0.281
							c-0.653,0-1.272,0.096-1.84,0.286c-0.576,0.192-1.096,0.478-1.544,0.85c-0.451,0.374-0.827,0.842-1.118,1.391
							c-0.287,0.542-0.483,1.169-0.583,1.866l-0.069,0.482l1.407,0.238l0.144,0.017c0.052,0.005,0.102,0.007,0.151,0.007
							c0.281,0,0.523-0.081,0.717-0.239c0.186-0.151,0.321-0.375,0.404-0.674c0.065-0.252,0.165-0.488,0.296-0.704
							c0.125-0.206,0.284-0.387,0.468-0.536c0.188-0.15,0.408-0.27,0.652-0.354c0.247-0.086,0.521-0.129,0.816-0.129
							c0.299,0,0.579,0.041,0.833,0.123c0.241,0.077,0.441,0.189,0.612,0.34c0.167,0.147,0.296,0.333,0.396,0.565
							c0.101,0.237,0.151,0.528,0.151,0.865c0,0.3-0.049,0.574-0.145,0.814c-0.089,0.222-0.231,0.41-0.433,0.572
							c-0.217,0.174-0.507,0.315-0.864,0.42c-0.374,0.11-0.839,0.166-1.384,0.166h-0.5v2.275h0.5c0.685,0,1.245,0.06,1.665,0.177
							c0.395,0.11,0.699,0.257,0.907,0.437c0.196,0.169,0.327,0.362,0.4,0.59c0.085,0.262,0.128,0.56,0.128,0.885
							c0,0.242-0.051,0.494-0.151,0.747c-0.102,0.256-0.249,0.482-0.45,0.691c-0.197,0.206-0.453,0.378-0.761,0.511
							c-0.304,0.132-0.671,0.199-1.09,0.199c-0.419,0-0.767-0.059-1.032-0.174c-0.275-0.12-0.506-0.266-0.685-0.436
							c-0.184-0.173-0.33-0.357-0.434-0.548c-0.126-0.229-0.233-0.436-0.308-0.589l-0.086-0.192
							c-0.096-0.216-0.25-0.387-0.449-0.497c-0.176-0.095-0.373-0.143-0.586-0.143c-0.205,0-0.41,0.043-0.606,0.127l-1.163,0.491
							l0.135,0.433c0.172,0.55,0.385,1.068,0.633,1.54c0.263,0.5,0.604,0.939,1.013,1.303c0.414,0.37,0.922,0.662,1.51,0.869
							c0.581,0.205,1.28,0.308,2.079,0.308c0.699,0,1.365-0.106,1.98-0.316c0.624-0.212,1.178-0.524,1.65-0.927
							c0.478-0.408,0.858-0.908,1.132-1.485c0.276-0.581,0.416-1.241,0.416-1.96C242.294,228.517,242.024,227.692,241.491,227.034z"
							/>
					</g>
					<g>
						<path style="fill:#5E3B3B;" d="M119.398,220.22c-0.439-0.446-0.971-0.797-1.582-1.045c-0.606-0.245-1.287-0.37-2.022-0.37
							c-0.742,0-1.435,0.127-2.06,0.379c-0.626,0.252-1.175,0.604-1.632,1.046c-0.458,0.443-0.819,0.97-1.074,1.566
							c-0.254,0.596-0.383,1.243-0.383,1.923c0,0.713,0.121,1.358,0.359,1.917c0.238,0.561,0.566,1.043,0.973,1.431
							c0.407,0.39,0.886,0.688,1.421,0.887c0.528,0.197,1.094,0.297,1.681,0.297c0.377,0,0.744-0.039,1.098-0.116l-4.493,5.884
							h2.619c0.277,0,0.531-0.054,0.756-0.162c0.235-0.113,0.423-0.27,0.558-0.465l3.422-4.943c0.263-0.378,0.498-0.744,0.704-1.098
							c0.208-0.358,0.392-0.727,0.545-1.095c0.155-0.374,0.275-0.762,0.356-1.154c0.082-0.395,0.123-0.817,0.123-1.254
							c0-0.731-0.118-1.412-0.352-2.023C120.18,221.207,119.838,220.667,119.398,220.22z M113.562,222.638
							c0.111-0.28,0.269-0.523,0.47-0.721c0.202-0.199,0.452-0.358,0.744-0.474c0.296-0.117,0.632-0.176,0.998-0.176
							c0.347,0,0.667,0.056,0.952,0.167c0.28,0.109,0.514,0.26,0.715,0.461c0.199,0.199,0.358,0.447,0.472,0.737
							c0.117,0.296,0.176,0.635,0.176,1.008c0,0.295-0.054,0.584-0.162,0.857c-0.107,0.273-0.258,0.508-0.461,0.716
							c-0.201,0.206-0.455,0.375-0.754,0.501c-0.3,0.127-0.655,0.191-1.056,0.191c-0.364,0-0.695-0.053-0.982-0.157
							c-0.275-0.1-0.5-0.24-0.688-0.431c-0.189-0.191-0.331-0.423-0.436-0.709c-0.106-0.291-0.161-0.634-0.161-1.02
							C113.391,223.245,113.449,222.924,113.562,222.638z"/>
					</g>
				</g>
				<g>
					<g>
						<g>
							
								<rect x="139.929" y="159.073" transform="matrix(0.866 -0.5 0.5 0.866 -63.1114 92.7065)" style="fill:#5E3B3B;" width="3" height="10.085"/>
						</g>
					</g>
					<g>
						<g>
							
								<rect x="209.897" y="284.26" transform="matrix(0.866 -0.5 0.5 0.866 -116.3317 144.4623)" style="fill:#5E3B3B;" width="3" height="10.085"/>
						</g>
					</g>
					<g>
						<g>
							
								<rect x="112.898" y="185.74" transform="matrix(0.5 -0.866 0.866 0.5 -108.1256 194.522)" style="fill:#5E3B3B;" width="3" height="10.321"/>
						</g>
						<g>
							<g>
								
									<rect x="112.898" y="185.74" transform="matrix(0.5 -0.866 0.866 0.5 -108.1256 194.522)" style="fill:#5E3B3B;" width="3" height="10.321"/>
							</g>
						</g>
						<g>
							<g>
								
									<rect x="236.928" y="257.348" transform="matrix(0.5 -0.866 0.866 0.5 -108.1259 337.7375)" style="fill:#5E3B3B;" width="3" height="10.321"/>
							</g>
						</g>
					</g>
					<g>
						<g>
							
								<rect x="109.237" y="261.009" transform="matrix(0.866 -0.5001 0.5001 0.866 -115.9388 92.3827)" style="fill:#5E3B3B;" width="10.321" height="3"/>
						</g>
						<g>
							<g>
								
									<rect x="109.237" y="261.009" transform="matrix(0.866 -0.5001 0.5001 0.866 -115.9388 92.3827)" style="fill:#5E3B3B;" width="10.321" height="3"/>
							</g>
						</g>
						<g>
							<g>
								
									<rect x="233.267" y="189.4" transform="matrix(0.866 -0.5001 0.5001 0.866 -63.5097 144.8086)" style="fill:#5E3B3B;" width="10.321" height="3"/>
							</g>
						</g>
					</g>
					<g>
						
							<rect x="136.387" y="287.803" transform="matrix(0.5001 -0.866 0.866 0.5001 -179.8273 267.1069)" style="fill:#5E3B3B;" width="10.085" height="3"/>
					</g>
					<g>
						<g>
							
								<rect x="136.387" y="287.803" transform="matrix(0.5001 -0.866 0.866 0.5001 -179.8273 267.1069)" style="fill:#5E3B3B;" width="10.085" height="3"/>
						</g>
					</g>
					<g>
						<g>
							
								<rect x="206.354" y="162.615" transform="matrix(0.5001 -0.866 0.866 0.5001 -36.4376 265.1129)" style="fill:#5E3B3B;" width="10.085" height="3"/>
						</g>
					</g>
				</g>
			</g>
			<g>
				<g>
					
						<ellipse transform="matrix(0.1606 -0.987 0.987 0.1606 -75.8627 364.5782)" style="fill:#F75D59;" cx="176.413" cy="226.891" rx="8.085" ry="8.085"/>
				</g>
			</g>
			<g>
				<g>
					<path style="fill:#5E3B3B;" d="M280.615,321.432l-56.184-13.762c-14.469,8.629-31.059,13.187-48.023,13.187
						c-51.81,0-93.96-42.155-93.96-93.97c0-21.098,6.833-41.031,19.758-57.645l2.368,1.842
						c-12.513,16.083-19.127,35.379-19.127,55.803c0,50.161,40.805,90.97,90.96,90.97c16.625,0,32.878-4.521,47.003-13.073
						l0.531-0.321l52.34,12.819l-16.031-55.053l0.203-0.488c4.595-11.042,6.925-22.769,6.925-34.854
						c0-50.155-40.809-90.96-90.97-90.96c-15.685,0-31.148,4.058-44.717,11.734l-1.478-2.611
						c14.02-7.931,29.993-12.123,46.195-12.123c51.815,0,93.97,42.15,93.97,93.96c0,12.304-2.339,24.251-6.953,35.516
						L280.615,321.432z"/>
				</g>
			</g>
		</g>
		<g>
			<g>
				<g>
					<path style="fill:#5E3B3B;" d="M176.413,306.334c-43.805,0-79.443-35.638-79.443-79.443s35.638-79.443,79.443-79.443
						c32.46,0,61.349,19.422,73.599,49.48l-2.778,1.132c-11.787-28.923-39.585-47.612-70.82-47.612
						c-42.151,0-76.443,34.292-76.443,76.443s34.293,76.443,76.443,76.443c15.519,0,30.459-4.624,43.205-13.371l1.697,2.474
						C208.067,301.528,192.54,306.334,176.413,306.334z"/>
				</g>
				<g>
					<path style="fill:#5E3B3B;" d="M241.188,272.895l-2.444-1.739c9.232-12.977,14.112-28.283,14.112-44.265h3
						C255.856,243.499,250.784,259.407,241.188,272.895z"/>
				</g>
			</g>
		</g>
	</g>
	<g>
		<rect x="285.915" y="245.355" style="fill:#5E3B3B;" width="364.376" height="3"/>
	</g>
	<g>
		<g>
			<g>
				<g>
					
						<ellipse transform="matrix(0.8653 -0.5012 0.5012 0.8653 -172.3283 360.0015)" style="fill:#FFC76C;" cx="583.77" cy="500.69" rx="48.956" ry="48.956"/>
				</g>
				<g>
					
						<ellipse transform="matrix(0.5144 -0.8575 0.8575 0.5144 -145.894 743.7298)" style="fill:#FFE9AB;" cx="583.77" cy="500.69" rx="35.227" ry="35.227"/>
				</g>
				<g>
					<path style="fill:#5E3B3B;" d="M583.8,550.65c-21.278,0-41.048-13.716-47.716-35.071c-3.977-12.737-2.756-26.261,3.438-38.079
						c6.194-11.819,16.621-20.519,29.358-24.495c5.696-1.779,11.584-2.523,17.483-2.218l-0.104,1.998
						c-5.674-0.301-11.314,0.42-16.784,2.128c-12.228,3.818-22.236,12.169-28.182,23.515c-5.946,11.346-7.119,24.328-3.3,36.556
						c7.881,25.241,34.826,39.363,60.07,31.483c11.585-3.617,21.285-11.405,27.313-21.93l1.736,0.994
						c-6.28,10.963-16.385,19.076-28.453,22.844C593.721,549.917,588.72,550.65,583.8,550.65z"/>
				</g>
				<g>
					<path style="fill:#5E3B3B;" d="M633.082,508.747l-1.973-0.324c1.215-7.402,0.689-14.813-1.563-22.026
						c-4.09-13.096-13.617-23.833-26.142-29.459l0.82-1.824c13.045,5.86,22.971,17.045,27.229,30.688
						C633.801,493.315,634.349,501.034,633.082,508.747z"/>
				</g>
			</g>
			<g>
				<g>
					<path style="fill:#FFC76C;" d="M587.135,523.992c-3.23,0.418-5.951-0.085-8.162-1.51c-2.213-1.424-3.787-3.639-4.724-6.643
						l-0.966-3.093l8.234-2.571l1.113,3.564c0.854,2.735,2.784,3.632,5.793,2.693c3.009-0.939,4.073-2.822,3.191-5.645
						c-0.546-1.749-1.567-3.164-3.064-4.246c-1.497-1.083-3.964-2.12-7.402-3.113c-4.278-1.271-7.452-2.715-9.52-4.333
						c-2.069-1.616-3.51-3.725-4.322-6.326c-0.91-2.913-0.88-5.555,0.089-7.924c0.969-2.369,2.868-4.314,5.695-5.836l-1.281-4.102
						l7.126-2.225l1.281,4.102c3.228-0.418,5.933,0.079,8.111,1.489c2.179,1.412,3.737,3.619,4.674,6.622l0.42,1.344l-8.233,2.571
						l-0.567-1.815c-0.868-2.779-2.755-3.715-5.657-2.809c-2.903,0.906-3.935,2.704-3.095,5.394c0.504,1.614,1.496,2.94,2.98,3.976
						c1.482,1.039,3.95,2.076,7.401,3.113c4.292,1.317,7.477,2.794,9.553,4.434c2.076,1.639,3.534,3.803,4.374,6.493
						c0.952,3.049,0.927,5.799-0.075,8.252c-1.002,2.452-2.949,4.426-5.841,5.919l1.47,4.706l-7.126,2.225L587.135,523.992z"/>
				</g>
			</g>
		</g>
		<g>
			<g>
				<g>
					<g>
						<g>
							<g>
								<path style="fill:#FFF9EE;" d="M548.534,479.8c3.649,1.853,6.159,4.698,7.875,8.261l0,0
									c1.716-3.563,4.236-6.423,7.885-8.277l0,0c-3.649-1.853-6.169-4.698-7.885-8.261l0,0
									C554.692,475.087,552.182,477.947,548.534,479.8z"/>
							</g>
						</g>
					</g>
				</g>
			</g>
			<g>
				<g>
					<g>
						<g>
							<g>
								<path style="fill:#FFF9EE;" d="M559.141,501.455c2.12,1.077,3.579,2.73,4.576,4.8l0,0c0.997-2.07,2.461-3.732,4.582-4.809
									l0,0c-2.12-1.077-3.585-2.73-4.582-4.801l0,0C562.72,498.716,561.261,500.378,559.141,501.455z"/>
							</g>
						</g>
					</g>
				</g>
			</g>
		</g>
	</g>
	<g>
		<g>
			<g>
				<g>
					<path style="fill:#9FB26B;" d="M216.181,453.632c0,0-7.145-45.698,27.382-60.89
						C278.089,377.551,216.181,453.632,216.181,453.632z"/>
				</g>
			</g>
			<g>
				<g>
					<path style="fill:#9FB26B;" d="M172.678,453.325c0,0,4.909-39.156-17.914-40.082
						C131.941,412.317,172.678,453.325,172.678,453.325z"/>
				</g>
			</g>
			<g>
				<g>
					<path style="fill:#9FB26B;" d="M199.47,425.21c0,0-6.507-66.08,23.032-70.441C253.982,350.122,199.47,425.21,199.47,425.21z"/>
				</g>
			</g>
			<g>
				<g>
					<path style="fill:#47393D;" d="M213.214,482.919l-1.999-0.051c0.011-0.424,1.318-42.613,21.559-62.964l1.418,1.41
						C214.506,441.108,213.225,482.503,213.214,482.919z"/>
				</g>
			</g>
			<g>
				<g>
					<path style="fill:#47393D;" d="M180.122,482.976c-0.249-1.422-6.21-34.959-17.021-46.632l1.468-1.359
						c11.209,12.102,17.271,46.201,17.523,47.647L180.122,482.976z"/>
				</g>
			</g>
			<g>
				<g>
					<path style="fill:#47393D;" d="M196.106,482.955c-0.08-0.595-7.715-60.013,21.281-104.33l1.674,1.096
						c-28.593,43.699-21.052,102.379-20.973,102.967L196.106,482.955z"/>
				</g>
			</g>
			<g>
				<g>
					<path style="fill:#9FB26B;" d="M185.947,438.817c0,0-19.849-47.422,7.649-67.093S185.947,438.817,185.947,438.817z"/>
				</g>
			</g>
			<g>
				<g>
					<path style="fill:#47393D;" d="M191.038,483.029c-0.125-0.443-12.327-44.887,0-88.77l1.926,0.541
						c-12.177,43.348-0.124,87.249,0,87.688L191.038,483.029z"/>
				</g>
			</g>
			<g>
				<g>
					<path style="fill:#FFFFFF;" d="M199.731,401.11l-1.92-0.561c3.796-12.987,5.374-22.047,4.688-26.929l1.98-0.277
						C205.205,378.508,203.607,387.85,199.731,401.11z"/>
				</g>
			</g>
		</g>
		<g>
			<g>
				<g>
					<path style="fill:#F75D59;" d="M212.133,548.79h-35.519c0,0-12.442-43.307-10.022-73.669h55.563
						C224.726,505.758,212.133,548.79,212.133,548.79z"/>
				</g>
			</g>
			<g>
				<g>
					<g>
						<rect x="166.358" y="486.809" style="fill:#FFFFFF;" width="56.088" height="2"/>
					</g>
				</g>
			</g>
			<g>
				<g>
					<g>
						<rect x="166.695" y="493.186" style="fill:#FFFFFF;" width="55.423" height="2"/>
					</g>
				</g>
			</g>
		</g>
	</g>
	<g>
		<g>
			<g>
				<rect x="154.019" y="548.159" style="fill:#5E3B3B;" width="625.434" height="3"/>
			</g>
		</g>
	</g>
	<g>
		<g>
			<g>
				<g>
					<g>
						<g>
							<g>
								<rect x="434.283" y="530.218" style="fill:#FFC76C;" width="94.979" height="18.383"/>
							</g>
						</g>
					</g>
				</g>
				<g>
					<g>
						<g>
							<g>
								<rect x="454.283" y="509.899" style="fill:#FFC76C;" width="94.979" height="18.383"/>
							</g>
						</g>
					</g>
				</g>
				<g>
					<g>
						<g>
							<g>
								<rect x="434.347" y="489.644" style="fill:#FFC76C;" width="94.979" height="18.383"/>
							</g>
						</g>
					</g>
				</g>
				<g>
					<g>
						<g>
							<g>
								<rect x="518.325" y="489.643" style="fill:#5E3B3B;" width="2" height="18.383"/>
							</g>
						</g>
					</g>
				</g>
				<g>
					<g>
						<g>
							<g>
								<rect x="508.325" y="489.643" style="fill:#5E3B3B;" width="2" height="18.383"/>
							</g>
						</g>
					</g>
				</g>
				<g>
					<g>
						<g>
							<g>
								<rect x="478.325" y="489.643" style="fill:#5E3B3B;" width="2" height="18.383"/>
							</g>
						</g>
					</g>
				</g>
				<g>
					<g>
						<g>
							<g>
								<rect x="458.325" y="489.643" style="fill:#5E3B3B;" width="2" height="18.383"/>
							</g>
						</g>
					</g>
				</g>
				<g>
					<g>
						<g>
							<g>
								<rect x="538.262" y="509.899" style="fill:#5E3B3B;" width="2" height="18.383"/>
							</g>
						</g>
					</g>
				</g>
				<g>
					<g>
						<g>
							<g>
								<rect x="528.262" y="509.899" style="fill:#5E3B3B;" width="2" height="18.383"/>
							</g>
						</g>
					</g>
				</g>
				<g>
					<g>
						<g>
							<g>
								<rect x="498.262" y="509.899" style="fill:#5E3B3B;" width="2" height="18.383"/>
							</g>
						</g>
					</g>
				</g>
				<g>
					<g>
						<g>
							<g>
								<rect x="488.262" y="509.899" style="fill:#5E3B3B;" width="2" height="18.383"/>
							</g>
						</g>
					</g>
				</g>
				<g>
					<g>
						<g>
							<g>
								<rect x="478.262" y="530.218" style="fill:#5E3B3B;" width="2" height="18.384"/>
							</g>
						</g>
					</g>
				</g>
				<g>
					<g>
						<g>
							<g>
								<rect x="458.262" y="530.218" style="fill:#5E3B3B;" width="2" height="18.384"/>
							</g>
						</g>
					</g>
				</g>
				<g>
					<g>
						<g>
							<g>
								<rect x="448.262" y="530.218" style="fill:#5E3B3B;" width="2" height="18.384"/>
							</g>
						</g>
					</g>
				</g>
				<g>
					<g>
						<g>
							<g>
								<rect x="434.336" y="507.92" style="fill:#5E3B3B;" width="94.469" height="2"/>
							</g>
						</g>
					</g>
				</g>
				<g>
					<g>
						<g>
							<g>
								<rect x="454.347" y="528.367" style="fill:#5E3B3B;" width="94.915" height="2"/>
							</g>
						</g>
					</g>
				</g>
			</g>
			<g>
				<g>
					<g>
						<g>
							<g>
								<path style="fill:#FFF9EE;" d="M513.961,517.097c2.947,1.497,4.974,3.795,6.36,6.672l0,0
									c1.386-2.878,3.421-5.188,6.368-6.685l0,0c-2.947-1.497-4.982-3.795-6.368-6.672l0,0
									C518.935,513.29,516.908,515.6,513.961,517.097z"/>
							</g>
						</g>
					</g>
				</g>
			</g>
			<g>
				<g>
					<g>
						<g>
							<g>
								<path style="fill:#FFF9EE;" d="M446.908,498.309c2.12,1.077,3.579,2.73,4.576,4.8l0,0c0.997-2.07,2.461-3.732,4.582-4.809
									l0,0c-2.12-1.077-3.585-2.73-4.582-4.801l0,0C450.487,495.569,449.028,497.232,446.908,498.309z"/>
							</g>
						</g>
					</g>
				</g>
			</g>
		</g>
		<g>
			<rect x="548.262" y="509.899" style="fill:#5E3B3B;" width="2" height="20.468"/>
		</g>
	</g>
</g>
</svg>
